<?xml version="1.0" encoding="UTF-8" standalone="no"?>
<svg
   xmlns:ns0="http://www.iki.fi/pav/software/textext/"
   xmlns:dc="http://purl.org/dc/elements/1.1/"
   xmlns:cc="http://creativecommons.org/ns#"
   xmlns:rdf="http://www.w3.org/1999/02/22-rdf-syntax-ns#"
   xmlns:svg="http://www.w3.org/2000/svg"
   xmlns="http://www.w3.org/2000/svg"
   xmlns:xlink="http://www.w3.org/1999/xlink"
   xmlns:sodipodi="http://sodipodi.sourceforge.net/DTD/sodipodi-0.dtd"
   xmlns:inkscape="http://www.inkscape.org/namespaces/inkscape"
   id="svg3767"
   version="1.1"
   inkscape:version="1.0.1 (c497b03c, 2020-09-10)"
   width="765"
   height="990"
   xml:space="preserve"
   sodipodi:docname="lattice2dboundaryfig.svg"><sodipodi:namedview
     pagecolor="#ffffff"
     bordercolor="#666666"
     borderopacity="1"
     objecttolerance="10"
     gridtolerance="10"
     guidetolerance="10"
     inkscape:pageopacity="0"
     inkscape:pageshadow="2"
     inkscape:window-width="1440"
     inkscape:window-height="855"
     id="namedview3769"
     showgrid="true"
     inkscape:zoom="0.99955286"
     inkscape:cx="489.98083"
     inkscape:cy="520.01663"
     inkscape:window-x="0"
     inkscape:window-y="23"
     inkscape:window-maximized="0"
     inkscape:current-layer="g3775"
     inkscape:snap-bbox="false"
     inkscape:object-nodes="true"
     inkscape:snap-global="false"
     inkscape:document-rotation="0"><inkscape:grid
       snapvisiblegridlinesonly="true"
       enabled="true"
       visible="true"
       empspacing="5"
       type="xygrid"
       id="grid16098" /></sodipodi:namedview><metadata
     id="metadata3773"><rdf:RDF><cc:Work
         rdf:about=""><dc:format>image/svg+xml</dc:format><dc:type
           rdf:resource="http://purl.org/dc/dcmitype/StillImage" /><dc:title /></cc:Work></rdf:RDF></metadata><defs
     id="defs3771" /><g
     id="g3775"
     inkscape:groupmode="layer"
     inkscape:label="ink_ext_XXXXXX"
     transform="matrix(1.25,0,0,-1.25,0,990)"><text
   xml:space="preserve"
   style="font-style:normal;font-weight:normal;line-height:0%;font-family:sans-serif;letter-spacing:0px;word-spacing:0px;fill:#000000;fill-opacity:1;stroke:none"
   x="23.616411"
   y="907.81488"
   id="text4058"
   transform="matrix(0.8,0,0,-0.8,0,792)"><tspan
     sodipodi:role="line"
     id="tspan4060"
     x="23.616411"
     y="907.81488"
     style="font-size:12px;line-height:0.5;font-family:sans-serif"> </tspan></text>
<rect
   style="fill:none;stroke:#000000;stroke-width:2.26771654;stroke-linecap:round;stroke-linejoin:round;stroke-miterlimit:4;stroke-opacity:1;stroke-dasharray:none;stroke-dashoffset:0"
   id="rect15440"
   width="191.23367"
   height="191.23367"
   x="193.97528"
   y="-463.15994"
   transform="scale(1,-1)" /><path
   style="color:#000000;display:inline;overflow:visible;visibility:visible;fill:none;stroke:#0000ff;stroke-width:3.02362;stroke-linecap:butt;stroke-linejoin:miter;stroke-miterlimit:4;stroke-dasharray:none;stroke-dashoffset:0;stroke-opacity:1;marker:none;enable-background:accumulate"
   d="M 385.61297,291.14573 343.9101,359.7589"
   id="path16138"
   inkscape:connector-curvature="0"
   sodipodi:nodetypes="cc" /><path
   style="color:#000000;fill:none;stroke:#0000ff;stroke-width:3.02362205;stroke-linecap:butt;stroke-linejoin:miter;stroke-miterlimit:4;stroke-opacity:1;stroke-dasharray:none;stroke-dashoffset:0;marker:none;visibility:visible;display:inline;overflow:visible;enable-background:accumulate"
   d="m 385.33825,291.52962 11.17382,-19.81493"
   id="path16924-71"
   inkscape:connector-curvature="0" /><path
   style="color:#000000;fill:none;stroke:#0000ff;stroke-width:3.02362205;stroke-linecap:butt;stroke-linejoin:miter;stroke-miterlimit:4;stroke-opacity:1;stroke-dasharray:none;stroke-dashoffset:0;marker:none;visibility:visible;display:inline;overflow:visible;enable-background:accumulate"
   d="M 396.51859,271.6865 433.4145,212.24309"
   id="path16126-2-4"
   inkscape:connector-curvature="0" /><path
   sodipodi:type="arc"
   style="fill:#ffffff;fill-opacity:1;fill-rule:evenodd;stroke:#0000ff;stroke-width:1.0629921;stroke-linecap:round;stroke-linejoin:round;stroke-miterlimit:4;stroke-opacity:1;stroke-dasharray:none;stroke-dashoffset:0"
   id="path16162-5-8"
   sodipodi:cx="305"
   sodipodi:cy="465"
   sodipodi:rx="5"
   sodipodi:ry="5"
   d="m 310,465 c 0,2.76142 -2.23858,5 -5,5 -2.76142,0 -5,-2.23858 -5,-5 0,-2.76142 2.23858,-5 5,-5 2.76142,0 5,2.23858 5,5 z"
   transform="matrix(0.83089888,0,0,-0.83089888,-10.016701,790.52247)" /><path
   sodipodi:nodetypes="cc"
   inkscape:connector-curvature="0"
   id="path18871"
   d="M 202.38016,150.4 375.6867,150.3324"
   style="color:#000000;fill:none;stroke:#000000;stroke-width:0.85039365;stroke-linecap:butt;stroke-linejoin:miter;stroke-miterlimit:4;stroke-opacity:1;stroke-dasharray:none;stroke-dashoffset:0;marker:none;visibility:visible;display:inline;overflow:visible;enable-background:accumulate" /><path
   sodipodi:nodetypes="cc"
   inkscape:connector-curvature="0"
   id="path18873"
   d="m 192,142.4 0,16"
   style="color:#000000;fill:none;stroke:#000000;stroke-width:0.85039365;stroke-linecap:butt;stroke-linejoin:miter;stroke-miterlimit:4;stroke-opacity:1;stroke-dasharray:none;stroke-dashoffset:0;marker:none;visibility:visible;display:inline;overflow:visible;enable-background:accumulate" /><path
   sodipodi:nodetypes="cc"
   inkscape:connector-curvature="0"
   id="path18873-4"
   d="m 384,142.4 0,16"
   style="color:#000000;fill:none;stroke:#000000;stroke-width:0.85039371;stroke-linecap:butt;stroke-linejoin:miter;stroke-miterlimit:4;stroke-opacity:1;stroke-dasharray:none;stroke-dashoffset:0;marker:none;visibility:visible;display:inline;overflow:visible;enable-background:accumulate" /><path
   inkscape:connector-curvature="0"
   id="path9164-7-7"
   d="m 372.1781,147.08054 -0.011,6.60264 11.38111,-3.24274 z"
   style="fill:#000000;fill-opacity:1;stroke:#000000;stroke-width:0.44753712px;stroke-linecap:butt;stroke-linejoin:miter;stroke-opacity:1" /><path
   inkscape:connector-curvature="0"
   id="path9164-7-7-1"
   d="m 204.64104,147.10082 0.011,6.60264 -11.38111,-3.24274 z"
   style="fill:#000000;fill-opacity:1;stroke:#000000;stroke-width:0.44753712px;stroke-linecap:butt;stroke-linejoin:miter;stroke-opacity:1" /><g
   ns0:text="$a$"
   ns0:preamble="/Users/grassl/Publications/Presentations/2014/Calibration/preamble.tex"
   transform="matrix(2,0,0,-2,-166.70145,431.09258)"
   id="g20052"><defs
     id="defs20054"><g
       id="g20056"><symbol
         style="overflow:visible"
         overflow="visible"
         id="textext-5c8dc59d-0"><path
           inkscape:connector-curvature="0"
           style="stroke:none"
           d=""
           id="path20059" /></symbol><symbol
         style="overflow:visible"
         overflow="visible"
         id="textext-5c8dc59d-1"><path
           inkscape:connector-curvature="0"
           style="stroke:none"
           d="M 3.71875,-3.765625 C 3.53125,-4.140625 3.25,-4.40625 2.796875,-4.40625 c -1.15625,0 -2.390625,1.46875 -2.390625,2.921875 0,0.9375 0.546875,1.59375 1.3125,1.59375 0.203125,0 0.703125,-0.046875 1.296875,-0.75 0.078125,0.421875 0.4375,0.75 0.90625,0.75 0.359375,0 0.578125,-0.234375 0.75,-0.546875 0.15625,-0.359375 0.296875,-0.96875 0.296875,-0.984375 0,-0.109375 -0.09375,-0.109375 -0.125,-0.109375 -0.09375,0 -0.109375,0.046875 -0.140625,0.1875 -0.171875,0.640625 -0.34375,1.234375 -0.75,1.234375 -0.28125,0 -0.296875,-0.265625 -0.296875,-0.453125 0,-0.21875 0.015625,-0.3125 0.125,-0.75 C 3.890625,-1.71875 3.90625,-1.828125 4,-2.203125 L 4.359375,-3.59375 c 0.0625,-0.28125 0.0625,-0.296875 0.0625,-0.34375 0,-0.171875 -0.109375,-0.265625 -0.28125,-0.265625 -0.25,0 -0.390625,0.21875 -0.421875,0.4375 z M 3.078125,-1.1875 C 3.015625,-1 3.015625,-0.984375 2.875,-0.8125 2.4375,-0.265625 2.03125,-0.109375 1.75,-0.109375 c -0.5,0 -0.640625,-0.546875 -0.640625,-0.9375 0,-0.5 0.3125,-1.71875 0.546875,-2.1875 0.3125,-0.578125 0.75,-0.953125 1.15625,-0.953125 0.640625,0 0.78125,0.8125 0.78125,0.875 0,0.0625 -0.015625,0.125 -0.03125,0.171875 z"
           id="path20062" /></symbol></g></defs><g
     id="textext-5c8dc59d-2"><g
       style="fill:#000000;fill-opacity:1"
       id="g20065"><use
         height="990"
         width="765"
         xlink:href="#textext-5c8dc59d-1"
         x="223.43201"
         y="134.765"
         id="use20067"
         transform="matrix(1.5,0,0,1.5,-113.05975,-66.308281)" /></g></g></g><g
   transform="rotate(90,125.55942,374.27662)"
   id="g20190"><path
     style="color:#000000;display:inline;overflow:visible;visibility:visible;fill:none;stroke:#000000;stroke-width:0.850394;stroke-linecap:butt;stroke-linejoin:miter;stroke-miterlimit:4;stroke-dasharray:none;stroke-dashoffset:0;stroke-opacity:1;marker:none;enable-background:accumulate"
     d="M 32.525701,415.9855 205.83224,415.9179"
     id="path18871-5"
     inkscape:connector-curvature="0"
     sodipodi:nodetypes="cc" /><path
     style="color:#000000;display:inline;overflow:visible;visibility:visible;fill:none;stroke:#000000;stroke-width:0.850394;stroke-linecap:butt;stroke-linejoin:miter;stroke-miterlimit:4;stroke-dasharray:none;stroke-dashoffset:0;stroke-opacity:1;marker:none;enable-background:accumulate"
     d="m 22.14554,407.9855 v 16"
     id="path18873-3"
     inkscape:connector-curvature="0"
     sodipodi:nodetypes="cc" /><path
     style="color:#000000;display:inline;overflow:visible;visibility:visible;fill:none;stroke:#000000;stroke-width:0.850394;stroke-linecap:butt;stroke-linejoin:miter;stroke-miterlimit:4;stroke-dasharray:none;stroke-dashoffset:0;stroke-opacity:1;marker:none;enable-background:accumulate"
     d="m 214.14554,407.9855 v 16"
     id="path18873-4-9"
     inkscape:connector-curvature="0"
     sodipodi:nodetypes="cc" /><path
     style="fill:#000000;fill-opacity:1;stroke:#000000;stroke-width:0.447537px;stroke-linecap:butt;stroke-linejoin:miter;stroke-opacity:1"
     d="m 202.32364,412.66604 -0.011,6.60264 11.38111,-3.24274 z"
     id="path9164-7-7-4"
     inkscape:connector-curvature="0" /><path
     style="fill:#000000;fill-opacity:1;stroke:#000000;stroke-width:0.447537px;stroke-linecap:butt;stroke-linejoin:miter;stroke-opacity:1"
     d="m 34.786581,412.68632 0.011,6.60264 -11.381111,-3.24274 z"
     id="path9164-7-7-1-1"
     inkscape:connector-curvature="0" /></g><g
   id="g20340"
   transform="matrix(3,0,0,-3,-577.2235,763.60851)"
   ns0:preamble="/Users/grassl/Publications/Presentations/2014/Calibration/preamble.tex"
   ns0:text="$b$"><defs
     id="defs20342"><g
       id="g20344"><symbol
         id="textext-faaf11da-0"
         overflow="visible"
         style="overflow:visible"><path
           id="path20347"
           d=""
           style="stroke:none"
           inkscape:connector-curvature="0" /></symbol><symbol
         id="textext-faaf11da-1"
         overflow="visible"
         style="overflow:visible"><path
           id="path20350"
           d="m 2.375,-6.8125 c 0,0 0,-0.109375 -0.125,-0.109375 -0.21875,0 -0.953125,0.078125 -1.21875,0.109375 -0.078125,0 -0.1875,0.015625 -0.1875,0.1875 0,0.125 0.09375,0.125 0.25,0.125 0.46875,0 0.484375,0.0625 0.484375,0.171875 0,0.0625 -0.078125,0.40625 -0.125,0.609375 l -0.828125,3.25 c -0.109375,0.5 -0.15625,0.671875 -0.15625,1.015625 0,0.9375 0.53125,1.5625 1.265625,1.5625 1.171875,0 2.40625,-1.484375 2.40625,-2.921875 0,-0.90625 -0.53125,-1.59375 -1.328125,-1.59375 -0.453125,0 -0.875,0.296875 -1.171875,0.59375 z M 1.453125,-3.046875 C 1.5,-3.265625 1.5,-3.28125 1.59375,-3.390625 2.078125,-4.03125 2.53125,-4.1875 2.796875,-4.1875 c 0.359375,0 0.625,0.296875 0.625,0.9375 0,0.59375 -0.328125,1.734375 -0.515625,2.109375 -0.328125,0.671875 -0.78125,1.03125 -1.171875,1.03125 -0.34375,0 -0.671875,-0.265625 -0.671875,-1 0,-0.203125 0,-0.390625 0.15625,-1.015625 z"
           style="stroke:none"
           inkscape:connector-curvature="0" /></symbol></g></defs><g
     id="textext-faaf11da-2"><g
       id="g20353"
       style="fill:#000000;fill-opacity:1"><use
         id="use20355"
         y="134.765"
         x="223.43201"
         xlink:href="#textext-faaf11da-1"
         width="765"
         height="990" /></g></g></g><path
   sodipodi:nodetypes="cc"
   inkscape:connector-curvature="0"
   id="path18871-6"
   d="m 494.44365,271.307 90.66671,-0.0676"
   style="color:#000000;display:inline;overflow:visible;visibility:visible;fill:none;stroke:#000000;stroke-width:0.850394;stroke-linecap:butt;stroke-linejoin:miter;stroke-miterlimit:4;stroke-dasharray:none;stroke-dashoffset:0;stroke-opacity:1;marker:none;enable-background:accumulate" /><path
   sodipodi:nodetypes="cc"
   inkscape:connector-curvature="0"
   id="path18871-6-0"
   d="m 494.76216,271.38565 0.0676,90.6667"
   style="color:#000000;display:inline;overflow:visible;visibility:visible;fill:none;stroke:#000000;stroke-width:0.850394;stroke-linecap:butt;stroke-linejoin:miter;stroke-miterlimit:4;stroke-dasharray:none;stroke-dashoffset:0;stroke-opacity:1;marker:none;enable-background:accumulate" /><path
   inkscape:connector-curvature="0"
   id="path9164-7-7-0"
   d="m 583.59543,268.09916 -0.011,6.60264 11.38111,-3.24274 z"
   style="fill:#000000;fill-opacity:1;stroke:#000000;stroke-width:0.447537px;stroke-linecap:butt;stroke-linejoin:miter;stroke-opacity:1" /><path
   inkscape:connector-curvature="0"
   id="path9164-7-7-0-9"
   d="m 498.25136,360.84642 -6.60264,-0.011 3.24274,11.38111 z"
   style="fill:#000000;fill-opacity:1;stroke:#000000;stroke-width:0.447537px;stroke-linecap:butt;stroke-linejoin:miter;stroke-opacity:1" /><g
   ns0:text="$x$"
   ns0:preamble="/Users/grassl/Publications/Presentations/2014/Calibration/preamble.tex"
   transform="matrix(3,0,0,-3,-92.586058,651.42219)"
   id="g759759"><defs
     id="defs759761"><g
       id="g759763"><symbol
         style="overflow:visible"
         overflow="visible"
         id="textext-1948bd13-0"><path
           inkscape:connector-curvature="0"
           style="stroke:none"
           d=""
           id="path759766" /></symbol><symbol
         style="overflow:visible"
         overflow="visible"
         id="textext-1948bd13-1"><path
           inkscape:connector-curvature="0"
           style="stroke:none"
           d="M 3.328125,-3.015625 C 3.390625,-3.265625 3.625,-4.1875 4.3125,-4.1875 c 0.046875,0 0.296875,0 0.5,0.125 C 4.53125,-4 4.34375,-3.765625 4.34375,-3.515625 c 0,0.15625 0.109375,0.34375 0.375,0.34375 0.21875,0 0.53125,-0.171875 0.53125,-0.578125 0,-0.515625 -0.578125,-0.65625 -0.921875,-0.65625 -0.578125,0 -0.921875,0.53125 -1.046875,0.75 -0.25,-0.65625 -0.78125,-0.75 -1.078125,-0.75 -1.03125,0 -1.609375,1.28125 -1.609375,1.53125 0,0.109375 0.109375,0.109375 0.125,0.109375 0.078125,0 0.109375,-0.03125 0.125,-0.109375 0.34375,-1.0625 1,-1.3125 1.34375,-1.3125 0.1875,0 0.53125,0.09375 0.53125,0.671875 0,0.3125 -0.171875,0.96875 -0.53125,2.375 -0.15625,0.609375 -0.515625,1.03125 -0.953125,1.03125 -0.0625,0 -0.28125,0 -0.5,-0.125 0.25,-0.0625 0.46875,-0.265625 0.46875,-0.546875 0,-0.265625 -0.21875,-0.34375 -0.359375,-0.34375 -0.3125,0 -0.546875,0.25 -0.546875,0.578125 0,0.453125 0.484375,0.65625 0.921875,0.65625 0.671875,0 1.03125,-0.703125 1.046875,-0.75 0.125,0.359375 0.484375,0.75 1.078125,0.75 1.03125,0 1.59375,-1.28125 1.59375,-1.53125 0,-0.109375 -0.078125,-0.109375 -0.109375,-0.109375 -0.09375,0 -0.109375,0.046875 -0.140625,0.109375 -0.328125,1.078125 -1,1.3125 -1.3125,1.3125 -0.390625,0 -0.546875,-0.3125 -0.546875,-0.65625 0,-0.21875 0.046875,-0.4375 0.15625,-0.875 z m 0,0"
           id="path759769" /></symbol></g></defs><g
     id="textext-1948bd13-2"><g
       style="fill:#000000;fill-opacity:1"
       id="g759772"><use
         height="990"
         width="765"
         xlink:href="#textext-1948bd13-1"
         x="223.43201"
         y="134.765"
         id="use759774" /></g></g></g><g
   id="g760049"
   transform="matrix(3,0,0,-3,-200.36073,763.63205)"
   ns0:preamble="/Users/grassl/Publications/Presentations/2014/Calibration/preamble.tex"
   ns0:text="$y$"><defs
     id="defs760051"><g
       id="g760053"><symbol
         id="textext-938a09a9-0"
         overflow="visible"><path
           id="path760056"
           d=""
           style="stroke:none" /></symbol><symbol
         id="textext-938a09a9-1"
         overflow="visible"><path
           id="path760059"
           d="m 4.84375,-3.796875 c 0.046875,-0.140625 0.046875,-0.15625 0.046875,-0.234375 0,-0.171875 -0.140625,-0.265625 -0.296875,-0.265625 -0.09375,0 -0.25,0.0625 -0.34375,0.203125 -0.015625,0.0625 -0.109375,0.359375 -0.140625,0.546875 -0.078125,0.25 -0.140625,0.53125 -0.203125,0.796875 l -0.453125,1.796875 c -0.03125,0.140625 -0.46875,0.84375 -1.125,0.84375 -0.5,0 -0.609375,-0.4375 -0.609375,-0.8125 C 1.71875,-1.375 1.890625,-2 2.21875,-2.875 2.375,-3.28125 2.421875,-3.390625 2.421875,-3.59375 c 0,-0.4375 -0.3125,-0.8125 -0.8125,-0.8125 -0.953125,0 -1.3125,1.453125 -1.3125,1.53125 0,0.109375 0.09375,0.109375 0.109375,0.109375 0.109375,0 0.109375,-0.03125 0.15625,-0.1875 0.28125,-0.9375 0.671875,-1.234375 1.015625,-1.234375 0.078125,0 0.25,0 0.25,0.3125 0,0.25 -0.109375,0.515625 -0.171875,0.703125 -0.40625,1.0625 -0.578125,1.625 -0.578125,2.09375 0,0.890625 0.625,1.1875 1.21875,1.1875 0.390625,0 0.71875,-0.171875 1,-0.453125 -0.125,0.515625 -0.25,1.015625 -0.640625,1.546875 -0.265625,0.328125 -0.640625,0.625 -1.09375,0.625 -0.140625,0 -0.59375,-0.03125 -0.765625,-0.421875 0.15625,0 0.296875,0 0.421875,-0.125 C 1.328125,1.203125 1.421875,1.0625 1.421875,0.875 1.421875,0.5625 1.15625,0.53125 1.0625,0.53125 0.828125,0.53125 0.5,0.6875 0.5,1.171875 c 0,0.5 0.4375,0.875 1.0625,0.875 1.015625,0 2.046875,-0.90625 2.328125,-2.03125 z m 0,0"
           style="stroke:none" /></symbol></g></defs><g
     id="textext-938a09a9-2"><g
       id="g760062"
       style="fill:#000000;fill-opacity:1"><use
         id="use760064"
         y="134.765"
         x="223.43201"
         xlink:href="#textext-938a09a9-1"
         width="100%"
         height="100%" /></g></g></g><path
   style="fill:none;stroke:#000000;stroke-width:0.8px;stroke-linecap:butt;stroke-linejoin:miter;stroke-opacity:1"
   d="M 193.67298,271.67859 V 181.8303"
   id="path958" /><path
   style="fill:none;stroke:#000000;stroke-width:0.8px;stroke-linecap:butt;stroke-linejoin:miter;stroke-opacity:1"
   d="M 384.94999,271.47893 V 181.63064"
   id="path958-6" /><path
   style="fill:none;stroke:#000000;stroke-width:0.8px;stroke-linecap:butt;stroke-linejoin:miter;stroke-opacity:1"
   d="M 194.0723,552.60424 V 462.75595"
   id="path958-5" /><path
   style="fill:none;stroke:#000000;stroke-width:0.8px;stroke-linecap:butt;stroke-linejoin:miter;stroke-opacity:1"
   d="M 385.34932,553.80222 V 463.95393"
   id="path990" /><path
   style="fill:none;stroke:#000000;stroke-width:0.8px;stroke-linecap:butt;stroke-linejoin:miter;stroke-opacity:1"
   d="M 474.59861,462.95563 H 384.75032"
   id="path992" /><path
   style="fill:none;stroke:#000000;stroke-width:0.8px;stroke-linecap:butt;stroke-linejoin:miter;stroke-opacity:1"
   d="M 475.79659,272.47726 H 385.9483"
   id="path994" /><path
   style="fill:none;stroke:#000000;stroke-width:0.8px;stroke-linecap:butt;stroke-linejoin:miter;stroke-opacity:1"
   d="M 194.67129,271.27928 H 104.823"
   id="path996" /><path
   style="fill:none;stroke:#000000;stroke-width:0.8px;stroke-linecap:butt;stroke-linejoin:miter;stroke-opacity:1"
   d="M 193.87264,462.5563 H 104.02435"
   id="path998" /><circle
   style="fill:#ffffff;fill-opacity:1;fill-rule:evenodd;stroke:#0000ff;stroke-width:0.883239;stroke-linecap:round;stroke-linejoin:round;stroke-miterlimit:4;stroke-dasharray:none;stroke-dashoffset:0;stroke-opacity:1"
   id="path1006"
   transform="scale(1,-1)"
   cx="385.02832"
   cy="-464.23087"
   r="4.1544943" /><g
   transform="matrix(3,0,0,-3,359.037,365.36613)"
   ns0:version="1.2.0"
   ns0:texconverter="pdflatex"
   ns0:pdfconverter="inkscape"
   ns0:text="$1$"
   ns0:preamble="/Users/grassl/Publications/Presentations/2014/Calibration/preamble.tex"
   ns0:scale="0.75"
   ns0:alignment="middle center"
   ns0:inkscapeversion="1.0.1"
   ns0:jacobian_sqrt="3.0"
   id="g18174"><defs
   id="id-5717781e-1394-4303-ba44-6a1cb58b93d4">
    <g
   id="id-ff052a17-dd20-493c-9cc6-4ec055a1c4c6">
      <symbol
   overflow="visible"
   id="id-ff93d917-961f-4e58-8cd7-257e498bdee7">
        <path
   style="stroke:none"
   d=""
   id="id-dd37a6c7-d650-44b6-ba5f-d5a6bb3e50df" />
      </symbol>
      <symbol
   overflow="visible"
   id="id-5ab3a430-fa64-46ab-9cfb-bddd5de4bccc">
        <path
   style="stroke:none"
   d="m 2.9375,-6.375 c 0,-0.25 0,-0.265625 -0.234375,-0.265625 C 2.078125,-6 1.203125,-6 0.890625,-6 v 0.3125 c 0.203125,0 0.78125,0 1.296875,-0.265625 v 5.171875 c 0,0.359375 -0.03125,0.46875 -0.921875,0.46875 h -0.3125 V 0 c 0.34375,-0.03125 1.203125,-0.03125 1.609375,-0.03125 0.390625,0 1.265625,0 1.609375,0.03125 v -0.3125 h -0.3125 c -0.90625,0 -0.921875,-0.109375 -0.921875,-0.46875 z m 0,0"
   id="id-435b3aed-14ce-41ef-b3fe-8f20665f7f36" />
      </symbol>
    </g>
  </defs>
  <g
   id="id-f2fb5d74-1666-433f-b540-5cb236557e51"
   transform="translate(-149.603,-128.124)">
    <g
   style="fill:#000000;fill-opacity:1"
   id="id-7af1aa34-3dc3-43dc-a460-6343203de047">
      <g
   transform="translate(148.712,134.765)"
   id="g1137"><path
   style="stroke:none"
   d="m 2.9375,-6.375 c 0,-0.25 0,-0.265625 -0.234375,-0.265625 C 2.078125,-6 1.203125,-6 0.890625,-6 v 0.3125 c 0.203125,0 0.78125,0 1.296875,-0.265625 v 5.171875 c 0,0.359375 -0.03125,0.46875 -0.921875,0.46875 h -0.3125 V 0 c 0.34375,-0.03125 1.203125,-0.03125 1.609375,-0.03125 0.390625,0 1.265625,0 1.609375,0.03125 v -0.3125 h -0.3125 c -0.90625,0 -0.921875,-0.109375 -0.921875,-0.46875 z m 0,0"
   id="id-a4899e50-edad-4499-bae6-706ac06452a8" />
      </g></g>
  </g>
</g><g
   transform="matrix(3,0,0,-3,259.22528,424.76507)"
   ns0:version="1.2.0"
   ns0:texconverter="pdflatex"
   ns0:pdfconverter="inkscape"
   ns0:text="$2$"
   ns0:preamble="/Users/grassl/Publications/Presentations/2014/Calibration/preamble.tex"
   ns0:scale="0.75"
   ns0:alignment="middle center"
   ns0:inkscapeversion="1.0.1"
   ns0:jacobian_sqrt="3.0"
   id="g1351"><defs
   id="defs1341">
    <g
   id="g1339">
      <symbol
   overflow="visible"
   id="symbol1333">
        <path
   style="stroke:none"
   d=""
   id="path1331" />
      </symbol>
      <symbol
   overflow="visible"
   id="symbol1337">
        <path
   style="stroke:none"
   d="m 1.265625,-0.765625 1.0625,-1.03125 c 1.546875,-1.375 2.140625,-1.90625 2.140625,-2.90625 0,-1.140625 -0.890625,-1.9375 -2.109375,-1.9375 -1.125,0 -1.859375,0.921875 -1.859375,1.8125 0,0.546875 0.5,0.546875 0.53125,0.546875 0.171875,0 0.515625,-0.109375 0.515625,-0.53125 0,-0.25 -0.1875,-0.515625 -0.53125,-0.515625 -0.078125,0 -0.09375,0 -0.125,0.015625 0.21875,-0.65625 0.765625,-1.015625 1.34375,-1.015625 0.90625,0 1.328125,0.8125 1.328125,1.625 C 3.5625,-3.90625 3.078125,-3.125 2.515625,-2.5 l -1.90625,2.125 C 0.5,-0.265625 0.5,-0.234375 0.5,0 H 4.203125 L 4.46875,-1.734375 H 4.234375 C 4.171875,-1.4375 4.109375,-1 4,-0.84375 3.9375,-0.765625 3.28125,-0.765625 3.0625,-0.765625 Z m 0,0"
   id="path1335" />
      </symbol>
    </g>
  </defs>
  <g
   id="g1349"
   transform="translate(-149.212,-128.124)">
    <g
   style="fill:#000000;fill-opacity:1"
   id="g1347">
      <g
   transform="translate(148.712,134.765)"
   id="g1345"><path
   style="stroke:none"
   d="m 1.265625,-0.765625 1.0625,-1.03125 c 1.546875,-1.375 2.140625,-1.90625 2.140625,-2.90625 0,-1.140625 -0.890625,-1.9375 -2.109375,-1.9375 -1.125,0 -1.859375,0.921875 -1.859375,1.8125 0,0.546875 0.5,0.546875 0.53125,0.546875 0.171875,0 0.515625,-0.109375 0.515625,-0.53125 0,-0.25 -0.1875,-0.515625 -0.53125,-0.515625 -0.078125,0 -0.09375,0 -0.125,0.015625 0.21875,-0.65625 0.765625,-1.015625 1.34375,-1.015625 0.90625,0 1.328125,0.8125 1.328125,1.625 C 3.5625,-3.90625 3.078125,-3.125 2.515625,-2.5 l -1.90625,2.125 C 0.5,-0.265625 0.5,-0.234375 0.5,0 H 4.203125 L 4.46875,-1.734375 H 4.234375 C 4.171875,-1.4375 4.109375,-1 4,-0.84375 3.9375,-0.765625 3.28125,-0.765625 3.0625,-0.765625 Z m 0,0"
   id="path1343" />
      </g></g>
  </g>
</g><g
   transform="matrix(3 0 0 -3 396.992 489.968)"
   ns0:version="1.2.0"
   ns0:texconverter="pdflatex"
   ns0:pdfconverter="inkscape"
   ns0:text="$3$"
   ns0:preamble="/Users/grassl/Publications/Presentations/2014/Calibration/preamble.tex"
   ns0:scale="0.75"
   ns0:alignment="middle center"
   ns0:inkscapeversion="1.0.1"
   ns0:jacobian_sqrt="3.0"
   id="g1379"><defs
   id="id-0935a7d6-dbdf-411a-a7cd-98aca5bb2366">
    <g
   id="id-92e1f0da-efd3-4b3b-98cd-21e2a4eaa21b">
      <symbol
   overflow="visible"
   id="id-31ec3d49-a8c7-4279-bab9-a403beb6047b">
        <path
   style="stroke:none"
   d=""
   id="id-d7dab757-145e-4d6c-8cd3-76b9d21e7f83" />
      </symbol>
      <symbol
   overflow="visible"
   id="id-1e1f8f50-ee20-4fce-9350-087c364bfef6">
        <path
   style="stroke:none"
   d="m 2.890625,-3.515625 c 0.8125,-0.265625 1.390625,-0.953125 1.390625,-1.75 0,-0.8125 -0.875,-1.375 -1.828125,-1.375 -1,0 -1.765625,0.59375 -1.765625,1.359375 0,0.328125 0.21875,0.515625 0.515625,0.515625 0.296875,0 0.5,-0.21875 0.5,-0.515625 0,-0.484375 -0.46875,-0.484375 -0.609375,-0.484375 0.296875,-0.5 0.953125,-0.625 1.3125,-0.625 0.421875,0 0.96875,0.21875 0.96875,1.109375 0,0.125 -0.03125,0.703125 -0.28125,1.140625 C 2.796875,-3.65625 2.453125,-3.625 2.203125,-3.625 2.125,-3.609375 1.890625,-3.59375 1.8125,-3.59375 c -0.078125,0.015625 -0.140625,0.03125 -0.140625,0.125 0,0.109375 0.0625,0.109375 0.234375,0.109375 h 0.4375 c 0.8125,0 1.1875,0.671875 1.1875,1.65625 0,1.359375 -0.6875,1.640625 -1.125,1.640625 -0.4375,0 -1.1875,-0.171875 -1.53125,-0.75 0.34375,0.046875 0.65625,-0.171875 0.65625,-0.546875 0,-0.359375 -0.265625,-0.5625 -0.546875,-0.5625 -0.25,0 -0.5625,0.140625 -0.5625,0.578125 0,0.90625 0.921875,1.5625 2.015625,1.5625 1.21875,0 2.125,-0.90625 2.125,-1.921875 0,-0.8125 -0.640625,-1.59375 -1.671875,-1.8125 z m 0,0"
   id="id-d2d9e832-56c3-4924-bea5-d28a16ab1acd" />
      </symbol>
    </g>
  </defs>
  <g
   id="id-7ebf9e10-3d78-4a85-894a-e1fe5763161b"
   transform="translate(-149.134, -128.124)">
    <g
   style="fill:#000000;fill-opacity:1"
   id="id-b0a7dd54-6e77-4a97-b9e4-1034bdde7c65">
      <g
   transform="translate(148.712, 134.765)"
   id="g1533"><path
   style="stroke:none"
   d="m 2.890625,-3.515625 c 0.8125,-0.265625 1.390625,-0.953125 1.390625,-1.75 0,-0.8125 -0.875,-1.375 -1.828125,-1.375 -1,0 -1.765625,0.59375 -1.765625,1.359375 0,0.328125 0.21875,0.515625 0.515625,0.515625 0.296875,0 0.5,-0.21875 0.5,-0.515625 0,-0.484375 -0.46875,-0.484375 -0.609375,-0.484375 0.296875,-0.5 0.953125,-0.625 1.3125,-0.625 0.421875,0 0.96875,0.21875 0.96875,1.109375 0,0.125 -0.03125,0.703125 -0.28125,1.140625 C 2.796875,-3.65625 2.453125,-3.625 2.203125,-3.625 2.125,-3.609375 1.890625,-3.59375 1.8125,-3.59375 c -0.078125,0.015625 -0.140625,0.03125 -0.140625,0.125 0,0.109375 0.0625,0.109375 0.234375,0.109375 h 0.4375 c 0.8125,0 1.1875,0.671875 1.1875,1.65625 0,1.359375 -0.6875,1.640625 -1.125,1.640625 -0.4375,0 -1.1875,-0.171875 -1.53125,-0.75 0.34375,0.046875 0.65625,-0.171875 0.65625,-0.546875 0,-0.359375 -0.265625,-0.5625 -0.546875,-0.5625 -0.25,0 -0.5625,0.140625 -0.5625,0.578125 0,0.90625 0.921875,1.5625 2.015625,1.5625 1.21875,0 2.125,-0.90625 2.125,-1.921875 0,-0.8125 -0.640625,-1.59375 -1.671875,-1.8125 z m 0,0"
   id="id-dda09f91-ed6b-4e56-a3c2-8e4027b5e018" />
      </g></g>
  </g>
</g><g
   transform="matrix(3,0,0,-3,431.92092,363.49731)"
   ns0:version="1.2.0"
   ns0:texconverter="pdflatex"
   ns0:pdfconverter="inkscape"
   ns0:text="$1$"
   ns0:preamble="/Users/grassl/Publications/Presentations/2014/Calibration/preamble.tex"
   ns0:scale="0.75"
   ns0:alignment="middle center"
   ns0:inkscapeversion="1.0.1"
   ns0:jacobian_sqrt="3.0"
   id="g1783"
   style="stroke:none;fill:#0000ff"><defs
   id="defs1773">
    <g
   id="g1771">
      <symbol
   overflow="visible"
   id="symbol1765">
        <path
   style="stroke:none"
   d=""
   id="path1763" />
      </symbol>
      <symbol
   overflow="visible"
   id="symbol1769">
        <path
   style="stroke:none"
   d="m 2.9375,-6.375 c 0,-0.25 0,-0.265625 -0.234375,-0.265625 C 2.078125,-6 1.203125,-6 0.890625,-6 v 0.3125 c 0.203125,0 0.78125,0 1.296875,-0.265625 v 5.171875 c 0,0.359375 -0.03125,0.46875 -0.921875,0.46875 h -0.3125 V 0 c 0.34375,-0.03125 1.203125,-0.03125 1.609375,-0.03125 0.390625,0 1.265625,0 1.609375,0.03125 v -0.3125 h -0.3125 c -0.90625,0 -0.921875,-0.109375 -0.921875,-0.46875 z m 0,0"
   id="path1767" />
      </symbol>
    </g>
  </defs>
  <g
   id="g1781"
   transform="translate(-149.603,-128.124)"
   style="stroke:none;fill:#0000ff">
    <g
   style="fill:#0000ff;fill-opacity:1;stroke:none"
   id="g1779">
      <g
   transform="translate(148.712,134.765)"
   id="g1777"
   style="stroke:none;fill:#0000ff"><path
   style="stroke:none;fill:#0000ff"
   d="m 2.9375,-6.375 c 0,-0.25 0,-0.265625 -0.234375,-0.265625 C 2.078125,-6 1.203125,-6 0.890625,-6 v 0.3125 c 0.203125,0 0.78125,0 1.296875,-0.265625 v 5.171875 c 0,0.359375 -0.03125,0.46875 -0.921875,0.46875 h -0.3125 V 0 c 0.34375,-0.03125 1.203125,-0.03125 1.609375,-0.03125 0.390625,0 1.265625,0 1.609375,0.03125 v -0.3125 h -0.3125 c -0.90625,0 -0.921875,-0.109375 -0.921875,-0.46875 z m 0,0"
   id="path1775" />
      </g></g>
  </g>
</g><g
   transform="matrix(3,0,0,-3,445.83903,523.2802)"
   ns0:version="1.2.0"
   ns0:texconverter="pdflatex"
   ns0:pdfconverter="inkscape"
   ns0:text="$2$"
   ns0:preamble="/Users/grassl/Publications/Presentations/2014/Calibration/preamble.tex"
   ns0:scale="0.75"
   ns0:alignment="middle center"
   ns0:inkscapeversion="1.0.1"
   ns0:jacobian_sqrt="3.0"
   id="g1805"
   style="stroke:none;fill:#0000ff"><defs
   id="defs1795">
    <g
   id="g1793">
      <symbol
   overflow="visible"
   id="symbol1787">
        <path
   style="stroke:none"
   d=""
   id="path1785" />
      </symbol>
      <symbol
   overflow="visible"
   id="symbol1791">
        <path
   style="stroke:none"
   d="m 1.265625,-0.765625 1.0625,-1.03125 c 1.546875,-1.375 2.140625,-1.90625 2.140625,-2.90625 0,-1.140625 -0.890625,-1.9375 -2.109375,-1.9375 -1.125,0 -1.859375,0.921875 -1.859375,1.8125 0,0.546875 0.5,0.546875 0.53125,0.546875 0.171875,0 0.515625,-0.109375 0.515625,-0.53125 0,-0.25 -0.1875,-0.515625 -0.53125,-0.515625 -0.078125,0 -0.09375,0 -0.125,0.015625 0.21875,-0.65625 0.765625,-1.015625 1.34375,-1.015625 0.90625,0 1.328125,0.8125 1.328125,1.625 C 3.5625,-3.90625 3.078125,-3.125 2.515625,-2.5 l -1.90625,2.125 C 0.5,-0.265625 0.5,-0.234375 0.5,0 H 4.203125 L 4.46875,-1.734375 H 4.234375 C 4.171875,-1.4375 4.109375,-1 4,-0.84375 3.9375,-0.765625 3.28125,-0.765625 3.0625,-0.765625 Z m 0,0"
   id="path1789" />
      </symbol>
    </g>
  </defs>
  <g
   id="g1803"
   transform="translate(-149.212,-128.124)"
   style="stroke:none;fill:#0000ff">
    <g
   style="fill:#0000ff;fill-opacity:1;stroke:none"
   id="g1801">
      <g
   transform="translate(148.712,134.765)"
   id="g1799"
   style="stroke:none;fill:#0000ff"><path
   style="stroke:none;fill:#0000ff"
   d="m 1.265625,-0.765625 1.0625,-1.03125 c 1.546875,-1.375 2.140625,-1.90625 2.140625,-2.90625 0,-1.140625 -0.890625,-1.9375 -2.109375,-1.9375 -1.125,0 -1.859375,0.921875 -1.859375,1.8125 0,0.546875 0.5,0.546875 0.53125,0.546875 0.171875,0 0.515625,-0.109375 0.515625,-0.53125 0,-0.25 -0.1875,-0.515625 -0.53125,-0.515625 -0.078125,0 -0.09375,0 -0.125,0.015625 0.21875,-0.65625 0.765625,-1.015625 1.34375,-1.015625 0.90625,0 1.328125,0.8125 1.328125,1.625 C 3.5625,-3.90625 3.078125,-3.125 2.515625,-2.5 l -1.90625,2.125 C 0.5,-0.265625 0.5,-0.234375 0.5,0 H 4.203125 L 4.46875,-1.734375 H 4.234375 C 4.171875,-1.4375 4.109375,-1 4,-0.84375 3.9375,-0.765625 3.28125,-0.765625 3.0625,-0.765625 Z m 0,0"
   id="path1797" />
      </g></g>
  </g>
</g><g
   transform="matrix(3,0,0,-3,278.32203,528.27878)"
   ns0:version="1.2.0"
   ns0:texconverter="pdflatex"
   ns0:pdfconverter="inkscape"
   ns0:text="$3$"
   ns0:preamble="/Users/grassl/Publications/Presentations/2014/Calibration/preamble.tex"
   ns0:scale="0.75"
   ns0:alignment="middle center"
   ns0:inkscapeversion="1.0.1"
   ns0:jacobian_sqrt="3.0"
   id="g1827"
   style="stroke:none;fill:#0000ff"><defs
   id="defs1817">
    <g
   id="g1815">
      <symbol
   overflow="visible"
   id="symbol1809">
        <path
   style="stroke:none"
   d=""
   id="path1807" />
      </symbol>
      <symbol
   overflow="visible"
   id="symbol1813">
        <path
   style="stroke:none"
   d="m 2.890625,-3.515625 c 0.8125,-0.265625 1.390625,-0.953125 1.390625,-1.75 0,-0.8125 -0.875,-1.375 -1.828125,-1.375 -1,0 -1.765625,0.59375 -1.765625,1.359375 0,0.328125 0.21875,0.515625 0.515625,0.515625 0.296875,0 0.5,-0.21875 0.5,-0.515625 0,-0.484375 -0.46875,-0.484375 -0.609375,-0.484375 0.296875,-0.5 0.953125,-0.625 1.3125,-0.625 0.421875,0 0.96875,0.21875 0.96875,1.109375 0,0.125 -0.03125,0.703125 -0.28125,1.140625 C 2.796875,-3.65625 2.453125,-3.625 2.203125,-3.625 2.125,-3.609375 1.890625,-3.59375 1.8125,-3.59375 c -0.078125,0.015625 -0.140625,0.03125 -0.140625,0.125 0,0.109375 0.0625,0.109375 0.234375,0.109375 h 0.4375 c 0.8125,0 1.1875,0.671875 1.1875,1.65625 0,1.359375 -0.6875,1.640625 -1.125,1.640625 -0.4375,0 -1.1875,-0.171875 -1.53125,-0.75 0.34375,0.046875 0.65625,-0.171875 0.65625,-0.546875 0,-0.359375 -0.265625,-0.5625 -0.546875,-0.5625 -0.25,0 -0.5625,0.140625 -0.5625,0.578125 0,0.90625 0.921875,1.5625 2.015625,1.5625 1.21875,0 2.125,-0.90625 2.125,-1.921875 0,-0.8125 -0.640625,-1.59375 -1.671875,-1.8125 z m 0,0"
   id="path1811" />
      </symbol>
    </g>
  </defs>
  <g
   id="g1825"
   transform="translate(-149.134,-128.124)"
   style="stroke:none;fill:#0000ff">
    <g
   style="fill:#0000ff;fill-opacity:1;stroke:none"
   id="g1823">
      <g
   transform="translate(148.712,134.765)"
   id="g1821"
   style="stroke:none;fill:#0000ff"><path
   style="stroke:none;fill:#0000ff"
   d="m 2.890625,-3.515625 c 0.8125,-0.265625 1.390625,-0.953125 1.390625,-1.75 0,-0.8125 -0.875,-1.375 -1.828125,-1.375 -1,0 -1.765625,0.59375 -1.765625,1.359375 0,0.328125 0.21875,0.515625 0.515625,0.515625 0.296875,0 0.5,-0.21875 0.5,-0.515625 0,-0.484375 -0.46875,-0.484375 -0.609375,-0.484375 0.296875,-0.5 0.953125,-0.625 1.3125,-0.625 0.421875,0 0.96875,0.21875 0.96875,1.109375 0,0.125 -0.03125,0.703125 -0.28125,1.140625 C 2.796875,-3.65625 2.453125,-3.625 2.203125,-3.625 2.125,-3.609375 1.890625,-3.59375 1.8125,-3.59375 c -0.078125,0.015625 -0.140625,0.03125 -0.140625,0.125 0,0.109375 0.0625,0.109375 0.234375,0.109375 h 0.4375 c 0.8125,0 1.1875,0.671875 1.1875,1.65625 0,1.359375 -0.6875,1.640625 -1.125,1.640625 -0.4375,0 -1.1875,-0.171875 -1.53125,-0.75 0.34375,0.046875 0.65625,-0.171875 0.65625,-0.546875 0,-0.359375 -0.265625,-0.5625 -0.546875,-0.5625 -0.25,0 -0.5625,0.140625 -0.5625,0.578125 0,0.90625 0.921875,1.5625 2.015625,1.5625 1.21875,0 2.125,-0.90625 2.125,-1.921875 0,-0.8125 -0.640625,-1.59375 -1.671875,-1.8125 z m 0,0"
   id="path1819" />
      </g></g>
  </g>
</g><g
   transform="matrix(3 0 0 -3 138.696 524.376)"
   ns0:version="1.2.0"
   ns0:texconverter="pdflatex"
   ns0:pdfconverter="inkscape"
   ns0:text="$4$"
   ns0:preamble="/Users/grassl/Publications/Presentations/2014/Calibration/preamble.tex"
   ns0:scale="0.75"
   ns0:alignment="middle center"
   ns0:inkscapeversion="1.0.1"
   ns0:jacobian_sqrt="3.0"
   id="g1849"
   style="stroke:none;fill:#0000ff"><defs
   id="id-602935ed-d39f-4c8c-9371-ae54ea9d14d2">
    <g
   id="id-15c303ca-eb34-441d-a6e1-dc51e8c9363d">
      <symbol
   overflow="visible"
   id="id-01a1a4be-764f-4b8b-87cd-454a04019dac">
        <path
   style="stroke:none"
   d=""
   id="id-9da81b84-acfe-4ea2-bdb1-5ead1332fc61" />
      </symbol>
      <symbol
   overflow="visible"
   id="id-37d6b661-53eb-4b57-b535-7196c94906a7">
        <path
   style="stroke:none"
   d="m 2.9375,-1.640625 v 0.859375 c 0,0.359375 -0.03125,0.46875 -0.765625,0.46875 H 1.96875 V 0 C 2.375,-0.03125 2.890625,-0.03125 3.3125,-0.03125 c 0.421875,0 0.9375,0 1.359375,0.03125 v -0.3125 h -0.21875 c -0.734375,0 -0.75,-0.109375 -0.75,-0.46875 V -1.640625 H 4.6875 v -0.3125 H 3.703125 v -4.53125 c 0,-0.203125 0,-0.265625 -0.171875,-0.265625 -0.078125,0 -0.109375,0 -0.1875,0.125 l -3.0625,4.671875 v 0.3125 z m 0.046875,-0.3125 H 0.5625 l 2.421875,-3.71875 z m 0,0"
   id="id-c93b0b5f-1157-495f-8f9b-e2b90645d08e" />
      </symbol>
    </g>
  </defs>
  <g
   id="id-1f159e42-a9c7-489b-be8e-e422c3b7cb6f"
   transform="translate(-148.993, -128.015)"
   style="stroke:none;fill:#0000ff">
    <g
   style="fill:#0000ff;fill-opacity:1;stroke:none"
   id="id-5eb859c1-a161-41ad-9f79-b8b07f3866c1">
      <g
   transform="translate(148.712, 134.765)"
   id="g2181"
   style="stroke:none;fill:#0000ff"><path
   style="stroke:none;fill:#0000ff"
   d="m 2.9375,-1.640625 v 0.859375 c 0,0.359375 -0.03125,0.46875 -0.765625,0.46875 H 1.96875 V 0 C 2.375,-0.03125 2.890625,-0.03125 3.3125,-0.03125 c 0.421875,0 0.9375,0 1.359375,0.03125 v -0.3125 h -0.21875 c -0.734375,0 -0.75,-0.109375 -0.75,-0.46875 V -1.640625 H 4.6875 v -0.3125 H 3.703125 v -4.53125 c 0,-0.203125 0,-0.265625 -0.171875,-0.265625 -0.078125,0 -0.109375,0 -0.1875,0.125 l -3.0625,4.671875 v 0.3125 z m 0.046875,-0.3125 H 0.5625 l 2.421875,-3.71875 z m 0,0"
   id="id-ab8a6074-fc15-4845-b1c3-d5c33948a5cb" />
      </g></g>
  </g>
</g><g
   transform="matrix(3 0 0 -3 140.286 394.657)"
   ns0:version="1.2.0"
   ns0:texconverter="pdflatex"
   ns0:pdfconverter="inkscape"
   ns0:text="$5$"
   ns0:preamble="/Users/grassl/Publications/Presentations/2014/Calibration/preamble.tex"
   ns0:scale="0.75"
   ns0:alignment="middle center"
   ns0:inkscapeversion="1.0.1"
   ns0:jacobian_sqrt="3.0"
   id="g1871"
   style="stroke:none;fill:#0000ff"><defs
   id="id-b6fdce26-ff84-43d4-b23f-049c3a0995dd">
    <g
   id="id-b0ee74b5-8c42-4fba-89af-1193aaa1dd60">
      <symbol
   overflow="visible"
   id="id-425d50e2-c8e9-40a1-bc3b-2e9478673aaa">
        <path
   style="stroke:none"
   d=""
   id="id-d78376f1-f53e-4046-8804-83272759c38d" />
      </symbol>
      <symbol
   overflow="visible"
   id="id-edc1f6a0-cf56-4edc-a820-829f7ba397c1">
        <path
   style="stroke:none"
   d="m 4.46875,-2 c 0,-1.1875 -0.8125,-2.1875 -1.890625,-2.1875 -0.46875,0 -0.90625,0.15625 -1.265625,0.515625 V -5.625 c 0.203125,0.0625 0.53125,0.125 0.84375,0.125 1.234375,0 1.9375,-0.90625 1.9375,-1.03125 0,-0.0625 -0.03125,-0.109375 -0.109375,-0.109375 0,0 -0.03125,0 -0.078125,0.03125 C 3.703125,-6.515625 3.21875,-6.3125 2.546875,-6.3125 2.15625,-6.3125 1.6875,-6.390625 1.21875,-6.59375 1.140625,-6.625 1.125,-6.625 1.109375,-6.625 1,-6.625 1,-6.546875 1,-6.390625 V -3.4375 c 0,0.171875 0,0.25 0.140625,0.25 0.078125,0 0.09375,-0.015625 0.140625,-0.078125 C 1.390625,-3.421875 1.75,-3.96875 2.5625,-3.96875 c 0.515625,0 0.765625,0.453125 0.84375,0.640625 0.15625,0.375 0.1875,0.75 0.1875,1.25 0,0.359375 0,0.953125 -0.25,1.375 C 3.109375,-0.3125 2.734375,-0.0625 2.28125,-0.0625 c -0.71875,0 -1.296875,-0.53125 -1.46875,-1.109375 0.03125,0 0.0625,0.015625 0.171875,0.015625 0.328125,0 0.5,-0.25 0.5,-0.484375 0,-0.25 -0.171875,-0.5 -0.5,-0.5 C 0.84375,-2.140625 0.5,-2.0625 0.5,-1.609375 0.5,-0.75 1.1875,0.21875 2.296875,0.21875 3.453125,0.21875 4.46875,-0.734375 4.46875,-2 Z m 0,0"
   id="id-b8f999c3-b622-4f9c-8729-c769827020ce" />
      </symbol>
    </g>
  </defs>
  <g
   id="id-ef96b707-c50c-41d8-83ef-a0ed2cba029a"
   transform="translate(-149.212, -128.124)"
   style="stroke:none;fill:#0000ff">
    <g
   style="fill:#0000ff;fill-opacity:1;stroke:none"
   id="id-fec2a564-bffc-4b1d-90b8-3f94f7806c69">
      <g
   transform="translate(148.712, 134.765)"
   id="g2442"
   style="stroke:none;fill:#0000ff"><path
   style="stroke:none;fill:#0000ff"
   d="m 4.46875,-2 c 0,-1.1875 -0.8125,-2.1875 -1.890625,-2.1875 -0.46875,0 -0.90625,0.15625 -1.265625,0.515625 V -5.625 c 0.203125,0.0625 0.53125,0.125 0.84375,0.125 1.234375,0 1.9375,-0.90625 1.9375,-1.03125 0,-0.0625 -0.03125,-0.109375 -0.109375,-0.109375 0,0 -0.03125,0 -0.078125,0.03125 C 3.703125,-6.515625 3.21875,-6.3125 2.546875,-6.3125 2.15625,-6.3125 1.6875,-6.390625 1.21875,-6.59375 1.140625,-6.625 1.125,-6.625 1.109375,-6.625 1,-6.625 1,-6.546875 1,-6.390625 V -3.4375 c 0,0.171875 0,0.25 0.140625,0.25 0.078125,0 0.09375,-0.015625 0.140625,-0.078125 C 1.390625,-3.421875 1.75,-3.96875 2.5625,-3.96875 c 0.515625,0 0.765625,0.453125 0.84375,0.640625 0.15625,0.375 0.1875,0.75 0.1875,1.25 0,0.359375 0,0.953125 -0.25,1.375 C 3.109375,-0.3125 2.734375,-0.0625 2.28125,-0.0625 c -0.71875,0 -1.296875,-0.53125 -1.46875,-1.109375 0.03125,0 0.0625,0.015625 0.171875,0.015625 0.328125,0 0.5,-0.25 0.5,-0.484375 0,-0.25 -0.171875,-0.5 -0.5,-0.5 C 0.84375,-2.140625 0.5,-2.0625 0.5,-1.609375 0.5,-0.75 1.1875,0.21875 2.296875,0.21875 3.453125,0.21875 4.46875,-0.734375 4.46875,-2 Z m 0,0"
   id="id-d1ef418c-6028-4e92-b9b4-a8fac2ac3eae" />
      </g></g>
  </g>
</g><g
   transform="matrix(3 0 0 -3 143.767 236.742)"
   ns0:version="1.2.0"
   ns0:texconverter="pdflatex"
   ns0:pdfconverter="inkscape"
   ns0:text="$6$"
   ns0:preamble="/Users/grassl/Publications/Presentations/2014/Calibration/preamble.tex"
   ns0:scale="0.75"
   ns0:alignment="middle center"
   ns0:inkscapeversion="1.0.1"
   ns0:jacobian_sqrt="3.0"
   id="g1893"
   style="stroke:none;fill:#0000ff"><defs
   id="id-51602fe3-05ef-4c61-abb8-b5d18183feb9">
    <g
   id="id-b3e9440a-d1b1-4cec-a7ef-32fc2cbb74da">
      <symbol
   overflow="visible"
   id="id-56cbf731-e0fe-450e-90e2-22d1999a2794">
        <path
   style="stroke:none"
   d=""
   id="id-a06c4525-1f32-455e-b39c-7df6bef32758" />
      </symbol>
      <symbol
   overflow="visible"
   id="id-b830ea43-d8de-4e09-8c8b-4bb24482babb">
        <path
   style="stroke:none"
   d="m 1.3125,-3.265625 v -0.25 c 0,-2.515625 1.234375,-2.875 1.75,-2.875 0.234375,0 0.65625,0.0625 0.875,0.40625 -0.15625,0 -0.546875,0 -0.546875,0.4375 0,0.3125 0.234375,0.46875 0.453125,0.46875 0.15625,0 0.46875,-0.09375 0.46875,-0.484375 0,-0.59375 -0.4375,-1.078125 -1.265625,-1.078125 -1.28125,0 -2.625,1.28125 -2.625,3.484375 0,2.671875 1.15625,3.375 2.078125,3.375 1.109375,0 2.0625,-0.9375 2.0625,-2.25 0,-1.265625 -0.890625,-2.21875 -2,-2.21875 -0.671875,0 -1.046875,0.5 -1.25,0.984375 z M 2.5,-0.0625 c -0.625,0 -0.921875,-0.59375 -0.984375,-0.75 -0.1875,-0.46875 -0.1875,-1.265625 -0.1875,-1.4375 0,-0.78125 0.328125,-1.78125 1.21875,-1.78125 0.171875,0 0.625,0 0.9375,0.625 0.171875,0.359375 0.171875,0.875 0.171875,1.359375 0,0.484375 0,0.984375 -0.171875,1.34375 C 3.1875,-0.109375 2.734375,-0.0625 2.5,-0.0625 Z m 0,0"
   id="id-f14536da-798a-4753-9bf1-9636f3200395" />
      </symbol>
    </g>
  </defs>
  <g
   id="id-968f2e26-4859-4364-a256-450e27da6617"
   transform="translate(-149.134, -128.124)"
   style="stroke:none;fill:#0000ff">
    <g
   style="fill:#0000ff;fill-opacity:1;stroke:none"
   id="id-9270f3a6-39d6-46f2-9fe5-679a51a7c102">
      <g
   transform="translate(148.712, 134.765)"
   id="g2703"
   style="stroke:none;fill:#0000ff"><path
   style="stroke:none;fill:#0000ff"
   d="m 1.3125,-3.265625 v -0.25 c 0,-2.515625 1.234375,-2.875 1.75,-2.875 0.234375,0 0.65625,0.0625 0.875,0.40625 -0.15625,0 -0.546875,0 -0.546875,0.4375 0,0.3125 0.234375,0.46875 0.453125,0.46875 0.15625,0 0.46875,-0.09375 0.46875,-0.484375 0,-0.59375 -0.4375,-1.078125 -1.265625,-1.078125 -1.28125,0 -2.625,1.28125 -2.625,3.484375 0,2.671875 1.15625,3.375 2.078125,3.375 1.109375,0 2.0625,-0.9375 2.0625,-2.25 0,-1.265625 -0.890625,-2.21875 -2,-2.21875 -0.671875,0 -1.046875,0.5 -1.25,0.984375 z M 2.5,-0.0625 c -0.625,0 -0.921875,-0.59375 -0.984375,-0.75 -0.1875,-0.46875 -0.1875,-1.265625 -0.1875,-1.4375 0,-0.78125 0.328125,-1.78125 1.21875,-1.78125 0.171875,0 0.625,0 0.9375,0.625 0.171875,0.359375 0.171875,0.875 0.171875,1.359375 0,0.484375 0,0.984375 -0.171875,1.34375 C 3.1875,-0.109375 2.734375,-0.0625 2.5,-0.0625 Z m 0,0"
   id="id-25ef9028-fd80-48a0-9f3d-a0c86aaea0bd" />
      </g></g>
  </g>
</g><g
   transform="matrix(3 0 0 -3 277.2 235.949)"
   ns0:version="1.2.0"
   ns0:texconverter="pdflatex"
   ns0:pdfconverter="inkscape"
   ns0:text="$7$"
   ns0:preamble="/Users/grassl/Publications/Presentations/2014/Calibration/preamble.tex"
   ns0:scale="0.75"
   ns0:alignment="middle center"
   ns0:inkscapeversion="1.0.1"
   ns0:jacobian_sqrt="3.0"
   id="g1915"
   style="stroke:none;fill:#0000ff"><defs
   id="id-25ca751f-a586-42eb-b0a8-48d487ccee4a">
    <g
   id="id-8c3f7057-ecdd-48dc-991e-b57f166799e2">
      <symbol
   overflow="visible"
   id="id-9b906d63-8f70-4d62-9287-d284c06fc6d9">
        <path
   style="stroke:none"
   d=""
   id="id-d8953a1e-850f-4ce1-85f7-841d1b5b53ca" />
      </symbol>
      <symbol
   overflow="visible"
   id="id-3c8fc89c-4974-474c-9b04-551e75e5b52d">
        <path
   style="stroke:none"
   d="m 4.75,-6.078125 c 0.078125,-0.109375 0.078125,-0.125 0.078125,-0.34375 H 2.40625 c -1.203125,0 -1.234375,-0.125 -1.265625,-0.3125 h -0.25 L 0.5625,-4.6875 h 0.25 c 0.03125,-0.15625 0.109375,-0.78125 0.25,-0.90625 0.0625,-0.0625 0.84375,-0.0625 0.96875,-0.0625 h 2.0625 C 3.984375,-5.5 3.203125,-4.40625 2.984375,-4.078125 2.078125,-2.734375 1.75,-1.34375 1.75,-0.328125 c 0,0.09375 0,0.546875 0.46875,0.546875 0.453125,0 0.453125,-0.453125 0.453125,-0.546875 V -0.84375 c 0,-0.546875 0.03125,-1.09375 0.109375,-1.625 0.046875,-0.234375 0.171875,-1.09375 0.625,-1.703125 z m 0,0"
   id="id-340a4e28-6c4c-4700-8821-6806bc36b8d0" />
      </symbol>
    </g>
  </defs>
  <g
   id="id-a58ee9e9-deac-4a05-88c0-76465cfb76b2"
   transform="translate(-149.275, -128.031)"
   style="stroke:none;fill:#0000ff">
    <g
   style="fill:#0000ff;fill-opacity:1;stroke:none"
   id="id-7637a5ef-274f-4226-bd2f-fca91ba3f929">
      <g
   transform="translate(148.712, 134.765)"
   id="g2964"
   style="stroke:none;fill:#0000ff"><path
   style="stroke:none;fill:#0000ff"
   d="m 4.75,-6.078125 c 0.078125,-0.109375 0.078125,-0.125 0.078125,-0.34375 H 2.40625 c -1.203125,0 -1.234375,-0.125 -1.265625,-0.3125 h -0.25 L 0.5625,-4.6875 h 0.25 c 0.03125,-0.15625 0.109375,-0.78125 0.25,-0.90625 0.0625,-0.0625 0.84375,-0.0625 0.96875,-0.0625 h 2.0625 C 3.984375,-5.5 3.203125,-4.40625 2.984375,-4.078125 2.078125,-2.734375 1.75,-1.34375 1.75,-0.328125 c 0,0.09375 0,0.546875 0.46875,0.546875 0.453125,0 0.453125,-0.453125 0.453125,-0.546875 V -0.84375 c 0,-0.546875 0.03125,-1.09375 0.109375,-1.625 0.046875,-0.234375 0.171875,-1.09375 0.625,-1.703125 z m 0,0"
   id="id-4cde1e17-6342-4635-a051-7bc5b976f7c4" />
      </g></g>
  </g>
</g><g
   transform="matrix(3,0,0,-3,432.36186,256.76243)"
   ns0:version="1.2.0"
   ns0:texconverter="pdflatex"
   ns0:pdfconverter="inkscape"
   ns0:text="$8$"
   ns0:preamble="/Users/grassl/Publications/Presentations/2014/Calibration/preamble.tex"
   ns0:scale="0.75"
   ns0:alignment="middle center"
   ns0:inkscapeversion="1.0.1"
   ns0:jacobian_sqrt="3.0"
   id="g1937"
   style="fill:#0000ff;stroke:none"><defs
   id="id-6ed8ef91-286d-47de-8df3-a31e5d724642">
    <g
   id="id-cac853db-caf8-4652-9068-8be4d64f9770">
      <symbol
   overflow="visible"
   id="id-02dcc439-4c16-4e8e-902f-9ac0e5639b5c">
        <path
   style="stroke:none"
   d=""
   id="id-5c296e28-f3a4-4495-a562-765c8c60ca9e" />
      </symbol>
      <symbol
   overflow="visible"
   id="id-4614a2db-587e-4b92-a032-02aa8d69ba17">
        <path
   style="stroke:none"
   d="m 1.625,-4.5625 c -0.453125,-0.296875 -0.5,-0.625 -0.5,-0.796875 0,-0.609375 0.65625,-1.03125 1.359375,-1.03125 0.71875,0 1.359375,0.515625 1.359375,1.234375 0,0.578125 -0.390625,1.046875 -0.984375,1.390625 z m 1.453125,0.953125 C 3.796875,-3.984375 4.28125,-4.5 4.28125,-5.15625 c 0,-0.921875 -0.875,-1.484375 -1.78125,-1.484375 -1,0 -1.8125,0.734375 -1.8125,1.671875 0,0.171875 0.015625,0.625 0.4375,1.09375 0.109375,0.109375 0.484375,0.359375 0.734375,0.53125 C 1.28125,-3.046875 0.421875,-2.5 0.421875,-1.5 c 0,1.046875 1.015625,1.71875 2.0625,1.71875 1.125,0 2.078125,-0.828125 2.078125,-1.890625 0,-0.359375 -0.109375,-0.8125 -0.5,-1.234375 C 3.875,-3.109375 3.71875,-3.203125 3.078125,-3.609375 Z m -1,0.421875 1.234375,0.78125 c 0.28125,0.1875 0.75,0.484375 0.75,1.09375 0,0.734375 -0.75,1.25 -1.5625,1.25 -0.859375,0 -1.578125,-0.609375 -1.578125,-1.4375 0,-0.578125 0.3125,-1.21875 1.15625,-1.6875 z m 0,0"
   id="id-c215c79b-010c-4978-bbdc-acef64b9154c" />
      </symbol>
    </g>
  </defs>
  <g
   id="id-23106e52-26a7-491f-8d1c-c3a11661214a"
   transform="translate(-149.134,-128.124)"
   style="fill:#0000ff;stroke:none">
    <g
   style="fill:#0000ff;fill-opacity:1;stroke:none"
   id="id-3e3e194b-6bee-4127-8b40-12c16638c752">
      <g
   transform="translate(148.712,134.765)"
   id="g3225"
   style="fill:#0000ff;stroke:none"><path
   style="fill:#0000ff;stroke:none"
   d="m 1.625,-4.5625 c -0.453125,-0.296875 -0.5,-0.625 -0.5,-0.796875 0,-0.609375 0.65625,-1.03125 1.359375,-1.03125 0.71875,0 1.359375,0.515625 1.359375,1.234375 0,0.578125 -0.390625,1.046875 -0.984375,1.390625 z m 1.453125,0.953125 C 3.796875,-3.984375 4.28125,-4.5 4.28125,-5.15625 c 0,-0.921875 -0.875,-1.484375 -1.78125,-1.484375 -1,0 -1.8125,0.734375 -1.8125,1.671875 0,0.171875 0.015625,0.625 0.4375,1.09375 0.109375,0.109375 0.484375,0.359375 0.734375,0.53125 C 1.28125,-3.046875 0.421875,-2.5 0.421875,-1.5 c 0,1.046875 1.015625,1.71875 2.0625,1.71875 1.125,0 2.078125,-0.828125 2.078125,-1.890625 0,-0.359375 -0.109375,-0.8125 -0.5,-1.234375 C 3.875,-3.109375 3.71875,-3.203125 3.078125,-3.609375 Z m -1,0.421875 1.234375,0.78125 c 0.28125,0.1875 0.75,0.484375 0.75,1.09375 0,0.734375 -0.75,1.25 -1.5625,1.25 -0.859375,0 -1.578125,-0.609375 -1.578125,-1.4375 0,-0.578125 0.3125,-1.21875 1.15625,-1.6875 z m 0,0"
   id="id-012cf1f9-54a1-45a4-b72f-c28e18c1ce52" />
      </g></g>
  </g>
</g><path
   sodipodi:type="arc"
   style="fill:#ffffff;fill-opacity:1;fill-rule:evenodd;stroke:#0000ff;stroke-width:1.0629921;stroke-linecap:round;stroke-linejoin:round;stroke-miterlimit:4;stroke-opacity:1;stroke-dasharray:none;stroke-dashoffset:0"
   id="path16162-5"
   sodipodi:cx="305"
   sodipodi:cy="465"
   sodipodi:rx="5"
   sodipodi:ry="5"
   d="m 310,465 c 0,2.76142 -2.23858,5 -5,5 -2.76142,0 -5,-2.23858 -5,-5 0,-2.76142 2.23858,-5 5,-5 2.76142,0 5,2.23858 5,5 z"
   transform="matrix(0.83089885,0,0,-0.83089885,90.783308,745.72246)" /></g></svg>
