<?xml version="1.0" encoding="UTF-8"?>
<svg xmlns="http://www.w3.org/2000/svg" xmlns:xlink="http://www.w3.org/1999/xlink" width="651" height="450" viewBox="0 0 651 450">
<defs>
<g>
<g id="glyph-0-0">
<path d="M 4.359375 -11.59375 C 3.40625 -11.59375 2.6875 -11.3125 2.0625 -10.703125 C 1.0625 -9.734375 0.40625 -7.765625 0.40625 -5.765625 C 0.40625 -3.875 0.984375 -1.890625 1.78125 -0.921875 C 2.421875 -0.171875 3.296875 0.234375 4.28125 0.234375 C 5.15625 0.234375 5.890625 -0.046875 6.515625 -0.65625 C 7.5 -1.59375 8.15625 -3.578125 8.15625 -5.65625 C 8.15625 -9.171875 6.59375 -11.59375 4.359375 -11.59375 Z M 4.296875 -11.140625 C 5.734375 -11.140625 6.515625 -9.203125 6.515625 -5.625 C 6.515625 -2.046875 5.765625 -0.203125 4.28125 -0.203125 C 2.8125 -0.203125 2.0625 -2.046875 2.0625 -5.609375 C 2.0625 -9.25 2.828125 -11.140625 4.296875 -11.140625 Z M 4.296875 -11.140625 "/>
</g>
<g id="glyph-0-1">
<path d="M 2.140625 -1.71875 C 1.625 -1.71875 1.203125 -1.28125 1.203125 -0.734375 C 1.203125 -0.234375 1.625 0.1875 2.125 0.1875 C 2.65625 0.1875 3.109375 -0.21875 3.109375 -0.734375 C 3.109375 -1.265625 2.65625 -1.71875 2.140625 -1.71875 Z M 2.140625 -1.71875 "/>
</g>
<g id="glyph-0-2">
<path d="M 8.140625 -2.34375 L 7.921875 -2.4375 C 7.28125 -1.4375 7.09375 -1.3125 6.296875 -1.296875 L 2.1875 -1.296875 L 5.078125 -4.3125 C 6.59375 -5.90625 7.265625 -7.21875 7.265625 -8.546875 C 7.265625 -10.265625 5.875 -11.59375 4.09375 -11.59375 C 3.15625 -11.59375 2.265625 -11.203125 1.625 -10.53125 C 1.078125 -9.9375 0.828125 -9.390625 0.53125 -8.171875 L 0.890625 -8.09375 C 1.578125 -9.765625 2.171875 -10.3125 3.375 -10.3125 C 4.828125 -10.3125 5.796875 -9.34375 5.796875 -7.90625 C 5.796875 -6.546875 5 -4.96875 3.5625 -3.4375 L 0.515625 -0.203125 L 0.515625 0 L 7.203125 0 Z M 8.140625 -2.34375 "/>
</g>
<g id="glyph-0-3">
<path d="M 8.09375 -3.953125 L 6.34375 -3.953125 L 6.34375 -11.59375 L 5.59375 -11.59375 L 0.203125 -3.953125 L 0.203125 -2.859375 L 5.015625 -2.859375 L 5.015625 0 L 6.34375 0 L 6.34375 -2.859375 L 8.09375 -2.859375 Z M 5 -3.953125 L 0.890625 -3.953125 L 5 -9.84375 Z M 5 -3.953125 "/>
</g>
<g id="glyph-0-4">
<path d="M 3.109375 -10 L 6.46875 -10 C 6.75 -10 6.8125 -10.015625 6.859375 -10.140625 L 7.5 -11.671875 L 7.359375 -11.796875 C 7.09375 -11.453125 6.9375 -11.34375 6.5625 -11.34375 L 2.984375 -11.34375 L 1.109375 -7.28125 C 1.09375 -7.25 1.09375 -7.234375 1.09375 -7.203125 C 1.09375 -7.09375 1.171875 -7.0625 1.296875 -7.0625 C 1.84375 -7.0625 2.515625 -6.9375 3.234375 -6.71875 C 5.203125 -6.078125 6.109375 -5.046875 6.109375 -3.328125 C 6.109375 -1.6875 5.078125 -0.390625 3.71875 -0.390625 C 3.375 -0.390625 3.109375 -0.515625 2.59375 -0.890625 C 2.046875 -1.296875 1.65625 -1.453125 1.265625 -1.453125 C 0.78125 -1.453125 0.546875 -1.25 0.546875 -0.828125 C 0.546875 -0.171875 1.34375 0.234375 2.640625 0.234375 C 4.0625 0.234375 5.296875 -0.21875 6.171875 -1.09375 C 6.9375 -1.875 7.296875 -2.84375 7.296875 -4.140625 C 7.296875 -5.375 6.96875 -6.171875 6.140625 -7.03125 C 5.375 -7.78125 4.40625 -8.171875 2.375 -8.53125 Z M 3.109375 -10 "/>
</g>
<g id="glyph-0-5">
<path d="M 2.015625 0 L 6.75 0 L 6.75 -0.25 C 5.4375 -0.25 5.140625 -0.453125 5.125 -1.265625 L 5.125 -11.546875 L 4.984375 -11.59375 L 1.90625 -10.03125 L 1.90625 -9.78125 C 2.578125 -10.046875 2.984375 -10.171875 3.140625 -10.171875 C 3.5 -10.171875 3.65625 -9.90625 3.65625 -9.359375 L 3.65625 -1.59375 C 3.609375 -0.515625 3.328125 -0.28125 2.015625 -0.25 Z M 2.015625 0 "/>
</g>
</g>
</defs>
<rect x="-65.1" y="-45" width="781.2" height="540" fill="rgb(100%, 100%, 100%)" fill-opacity="1"/>
<path fill="none" stroke-width="18.36" stroke-linecap="butt" stroke-linejoin="miter" stroke="rgb(0%, 0%, 0%)" stroke-opacity="1" stroke-miterlimit="10" d="M 368.007812 198.007812 L 378.398438 1794.726562 L 388.203125 3391.40625 L 398.59375 4067.695312 L 409.023438 4023.59375 L 418.789062 3980.15625 L 429.179688 3937.304688 L 439.609375 3895.078125 L 449.414062 3852.851562 L 459.804688 3811.875 L 470.195312 3770.859375 L 480 3729.84375 L 490.390625 3690.078125 L 500.820312 3650.898438 L 510.585938 3611.71875 L 521.015625 3573.164062 L 531.40625 3534.609375 L 541.210938 3497.304688 L 561.992188 3422.617188 L 571.796875 3386.523438 L 582.1875 3350.390625 L 592.617188 3314.921875 L 602.382812 3279.414062 L 612.8125 3245.15625 L 623.203125 3210.273438 L 633.007812 3176.601562 L 643.398438 3142.96875 L 653.789062 3109.882812 L 663.59375 3076.835938 L 673.984375 3044.414062 L 684.414062 3012.578125 L 694.179688 2980.78125 L 704.609375 2949.53125 L 715 2918.359375 L 724.804688 2887.734375 L 735.195312 2857.148438 L 745.585938 2827.148438 L 755.390625 2797.773438 L 765.820312 2768.398438 L 776.210938 2739.648438 L 785.976562 2710.859375 L 796.40625 2682.734375 L 806.796875 2654.570312 L 816.601562 2627.03125 L 826.992188 2600.117188 L 837.382812 2573.164062 L 847.1875 2546.25 L 857.617188 2519.921875 L 868.007812 2493.59375 L 877.8125 2467.890625 L 898.59375 2417.734375 L 908.398438 2392.617188 L 918.789062 2368.164062 L 929.21875 2343.671875 L 938.984375 2319.804688 L 949.414062 2295.3125 L 959.804688 2272.070312 L 969.609375 2248.828125 L 990.390625 2203.515625 L 1000.195312 2180.898438 L 1010.585938 2158.242188 L 1021.015625 2136.835938 L 1030.78125 2114.804688 L 1041.210938 2093.359375 L 1051.601562 2071.953125 L 1061.40625 2051.132812 L 1071.796875 2030.3125 L 1082.1875 2010.117188 L 1091.992188 1989.921875 L 1102.382812 1969.726562 L 1112.8125 1949.53125 L 1122.617188 1929.960938 L 1133.007812 1910.976562 L 1143.398438 1891.40625 L 1153.203125 1873.046875 L 1163.59375 1854.0625 L 1173.984375 1835.703125 L 1183.789062 1817.34375 L 1194.21875 1798.984375 L 1204.609375 1781.25 L 1214.375 1763.515625 L 1224.804688 1746.367188 L 1235.195312 1728.59375 L 1245 1711.484375 L 1255.390625 1694.960938 L 1265.78125 1677.8125 L 1275.585938 1661.289062 L 1286.015625 1645.390625 L 1296.40625 1628.867188 L 1306.210938 1612.96875 L 1316.601562 1597.03125 L 1326.992188 1581.71875 L 1336.796875 1566.445312 L 1347.1875 1551.132812 L 1357.617188 1535.820312 L 1367.382812 1521.132812 L 1377.8125 1506.445312 L 1388.203125 1491.757812 L 1398.007812 1477.070312 L 1418.789062 1448.945312 L 1428.59375 1434.84375 L 1438.984375 1421.40625 L 1449.414062 1407.304688 L 1459.21875 1393.867188 L 1469.609375 1381.015625 L 1480 1367.539062 L 1489.804688 1354.6875 L 1500.195312 1341.835938 L 1510.625 1328.984375 L 1520.390625 1316.132812 L 1530.78125 1303.867188 L 1541.210938 1291.640625 L 1551.015625 1279.414062 L 1561.40625 1267.148438 L 1571.796875 1255.546875 L 1581.601562 1243.90625 L 1591.992188 1232.265625 L 1602.382812 1220.664062 L 1612.1875 1209.023438 L 1622.617188 1198.007812 L 1633.007812 1186.992188 L 1642.8125 1175.976562 L 1663.59375 1153.945312 L 1673.398438 1143.554688 L 1683.789062 1133.125 L 1694.21875 1122.734375 L 1703.984375 1112.34375 L 1714.414062 1101.914062 L 1724.804688 1092.148438 L 1734.609375 1082.34375 L 1745 1072.539062 L 1755.390625 1062.773438 L 1765.195312 1052.96875 L 1775.585938 1043.164062 L 1786.015625 1033.984375 L 1795.78125 1024.804688 L 1806.210938 1015.625 L 1816.601562 1006.445312 L 1826.40625 997.265625 L 1847.1875 980.15625 L 1856.992188 970.9375 L 1867.382812 962.382812 L 1877.8125 953.828125 L 1887.617188 945.859375 L 1898.007812 937.304688 L 1908.398438 929.335938 L 1918.203125 920.78125 L 1938.984375 904.84375 L 1948.789062 897.5 L 1959.21875 889.570312 L 1969.609375 881.601562 L 1979.375 874.257812 L 1989.804688 866.914062 L 2000.195312 859.570312 L 2010 852.226562 L 2030.78125 837.539062 L 2040.585938 830.195312 L 2051.015625 823.476562 L 2061.40625 816.71875 L 2071.210938 809.375 L 2091.992188 795.9375 L 2101.796875 789.179688 L 2112.1875 783.085938 L 2122.617188 776.328125 L 2132.382812 770.234375 L 2142.8125 763.476562 L 2153.203125 757.382812 L 2163.007812 751.25 L 2173.398438 745.117188 L 2183.789062 739.023438 L 2193.59375 732.890625 L 2203.984375 726.757812 L 2214.414062 721.25 L 2224.21875 715.15625 L 2245 704.140625 L 2254.804688 698.632812 L 2265.195312 692.5 L 2275.625 686.992188 L 2285.390625 682.109375 L 2295.78125 676.601562 L 2306.210938 671.054688 L 2316.015625 666.171875 L 2326.40625 660.664062 L 2336.796875 655.78125 L 2346.601562 650.273438 L 2356.992188 645.351562 L 2367.382812 640.46875 L 2377.1875 635.585938 L 2387.617188 630.703125 L 2398.007812 625.78125 L 2407.8125 621.523438 L 2418.203125 616.601562 L 2428.59375 611.71875 L 2438.398438 607.421875 L 2448.789062 603.164062 L 2459.21875 598.242188 L 2468.984375 593.984375 L 2479.414062 589.6875 L 2489.804688 585.390625 L 2499.609375 581.09375 L 2510 576.835938 L 2520.390625 572.539062 L 2530.195312 568.28125 L 2540.585938 563.984375 L 2551.015625 560.3125 L 2560.78125 556.015625 L 2571.210938 552.34375 L 2581.601562 548.046875 L 2591.40625 544.375 L 2612.1875 537.03125 L 2621.992188 532.773438 L 2632.382812 529.101562 L 2642.8125 525.429688 L 2652.617188 521.757812 L 2663.007812 518.671875 L 2673.398438 515 L 2683.203125 511.328125 L 2693.59375 507.65625 L 2703.984375 504.609375 L 2713.789062 500.9375 L 2724.21875 497.890625 L 2734.609375 494.21875 L 2744.375 491.132812 L 2754.804688 488.085938 L 2765.195312 484.414062 L 2775 481.367188 L 2785.390625 478.28125 L 2795.78125 475.234375 L 2805.585938 472.1875 L 2816.015625 469.101562 L 2826.40625 466.054688 L 2836.210938 463.007812 L 2846.601562 459.921875 L 2856.992188 457.5 L 2866.796875 454.414062 L 2877.1875 451.367188 L 2887.617188 448.90625 L 2897.382812 445.859375 L 2907.8125 443.398438 L 2918.203125 440.351562 L 2928.007812 437.890625 L 2938.398438 435.46875 L 2948.789062 432.382812 L 2958.59375 429.960938 L 2968.984375 427.5 L 2979.414062 425.039062 L 2989.21875 422.617188 L 3010 417.695312 L 3019.804688 415.273438 L 3030.195312 412.8125 L 3040.625 410.351562 L 3050.390625 407.929688 L 3060.78125 405.46875 L 3071.210938 403.007812 L 3081.015625 401.171875 L 3091.40625 398.75 L 3101.796875 396.289062 L 3111.601562 394.453125 L 3121.992188 391.992188 L 3132.382812 390.15625 L 3142.1875 387.734375 L 3152.617188 385.898438 L 3163.007812 383.4375 L 3172.8125 381.601562 L 3183.203125 379.765625 L 3193.59375 377.304688 L 3203.398438 375.46875 L 3213.789062 373.632812 L 3224.21875 371.796875 L 3233.984375 369.960938 L 3244.414062 368.125 L 3254.804688 366.289062 L 3264.609375 363.867188 L 3275 362.03125 L 3285.390625 360.78125 L 3295.195312 358.945312 L 3305.585938 357.109375 L 3316.015625 355.273438 L 3325.78125 353.4375 L 3336.210938 351.601562 L 3346.601562 349.765625 L 3356.40625 348.554688 L 3377.1875 344.882812 L 3386.992188 343.671875 L 3397.382812 341.835938 L 3407.8125 340 L 3417.617188 338.75 L 3428.007812 336.914062 L 3438.398438 335.703125 L 3448.203125 333.867188 L 3458.59375 332.65625 L 3468.984375 330.820312 L 3478.789062 329.570312 L 3489.21875 328.359375 L 3499.609375 326.523438 L 3509.375 325.3125 L 3519.804688 324.0625 L 3530.195312 322.226562 L 3540 321.015625 L 3550.390625 319.804688 L 3560.78125 318.554688 L 3570.585938 316.71875 L 3581.015625 315.507812 L 3591.40625 314.296875 L 3601.210938 313.046875 L 3621.992188 310.625 L 3631.796875 309.375 L 3642.1875 308.164062 L 3652.617188 306.953125 L 3662.382812 305.703125 L 3672.8125 304.492188 L 3683.203125 303.28125 L 3693.007812 302.03125 L 3713.789062 299.609375 L 3723.59375 298.984375 L 3733.984375 297.773438 L 3744.414062 296.523438 L 3754.21875 295.3125 L 3764.609375 294.101562 L 3775 293.476562 L 3784.804688 292.226562 L 3795.195312 291.015625 L 3805.625 290.390625 L 3815.390625 289.179688 L 3825.78125 287.96875 L 3836.210938 287.34375 L 3846.015625 286.132812 L 3856.40625 284.882812 L 3866.796875 284.296875 L 3876.601562 283.046875 L 3886.992188 282.460938 L 3897.382812 281.210938 L 3907.1875 280.625 L 3917.617188 279.414062 L 3928.007812 278.789062 L 3937.8125 277.578125 L 3948.203125 276.953125 L 3958.59375 275.742188 L 3968.398438 275.117188 L 3978.789062 274.492188 L 3989.21875 273.28125 L 3998.984375 272.65625 L 4009.414062 272.070312 L 4019.804688 270.820312 L 4029.609375 270.234375 L 4040 269.609375 L 4050.390625 268.398438 L 4060.195312 267.773438 L 4070.585938 267.148438 L 4081.015625 266.5625 L 4090.78125 265.3125 L 4101.210938 264.6875 L 4111.601562 264.101562 L 4121.40625 263.476562 L 4131.796875 262.851562 L 4142.1875 261.640625 L 4151.992188 261.015625 L 4162.382812 260.429688 L 4172.8125 259.804688 L 4182.617188 259.179688 L 4193.007812 258.59375 L 4203.398438 257.96875 L 4213.203125 257.34375 L 4223.59375 256.132812 L 4233.984375 255.507812 L 4243.789062 254.921875 L 4254.21875 254.296875 L 4264.609375 253.671875 L 4274.375 253.085938 L 4284.804688 252.460938 L 4295.195312 251.835938 L 4305 251.25 L 4315.390625 250.625 L 4325.78125 250.039062 L 4335.585938 249.414062 L 4346.015625 249.414062 L 4356.40625 248.789062 L 4366.210938 248.203125 L 4386.992188 246.953125 L 4396.796875 246.367188 L 4407.1875 245.742188 L 4417.617188 245.117188 L 4427.382812 244.53125 L 4437.8125 244.53125 L 4448.203125 243.90625 L 4458.007812 243.28125 L 4468.398438 242.695312 L 4478.789062 242.070312 L 4488.59375 242.070312 L 4498.984375 241.445312 L 4509.414062 240.859375 L 4519.21875 240.234375 L 4529.609375 239.609375 L 4540 239.609375 L 4549.804688 239.023438 L 4560.195312 238.398438 L 4570.625 237.773438 L 4580.390625 237.773438 L 4590.78125 237.1875 L 4601.210938 236.5625 L 4611.015625 236.5625 L 4631.796875 235.3125 L 4641.601562 235.3125 L 4651.992188 234.726562 L 4662.382812 234.101562 L 4672.1875 234.101562 L 4682.617188 233.476562 L 4693.007812 232.890625 L 4702.8125 232.890625 L 4723.59375 231.640625 L 4733.398438 231.640625 L 4743.789062 231.054688 L 4754.21875 231.054688 L 4763.984375 230.429688 L 4774.414062 229.804688 L 4784.804688 229.804688 L 4794.609375 229.21875 L 4805 229.21875 L 4815.390625 228.59375 L 4825.195312 228.59375 L 4835.585938 227.96875 L 4846.015625 227.382812 L 4855.78125 227.382812 L 4866.210938 226.757812 L 4876.601562 226.757812 L 4886.40625 226.132812 L 4896.796875 226.132812 L 4907.1875 225.546875 L 4916.992188 225.546875 L 4927.382812 224.921875 L 4937.8125 224.921875 L 4947.617188 224.296875 L 4958.007812 224.296875 L 4968.398438 223.710938 L 4978.203125 223.710938 L 4988.59375 223.085938 L 5008.789062 223.085938 L 5019.21875 222.460938 L 5029.609375 222.460938 L 5039.375 221.875 L 5049.804688 221.875 L 5060.195312 221.25 L 5080.390625 221.25 L 5090.78125 220.664062 L 5100.585938 220.664062 L 5111.015625 220.039062 L 5131.210938 220.039062 L 5141.601562 219.414062 L 5151.992188 219.414062 L 5161.796875 218.828125 L 5182.617188 218.828125 L 5192.382812 218.203125 L 5202.8125 218.203125 L 5213.203125 217.578125 L 5233.398438 217.578125 L 5243.789062 216.992188 L 5263.984375 216.992188 L 5274.414062 216.367188 L 5294.609375 216.367188 L 5305 215.742188 L 5335.625 215.742188 L 5345.390625 215.15625 L 5366.210938 215.15625 L 5376.015625 214.53125 L 5406.601562 214.53125 L 5416.992188 213.90625 L 5437.1875 213.90625 L 5447.617188 213.320312 L 5478.203125 213.320312 L 5488.59375 212.695312 L 5519.21875 212.695312 L 5528.984375 212.070312 L 5559.609375 212.070312 L 5570 211.484375 L 5600.585938 211.484375 L 5611.015625 210.859375 L 5641.601562 210.859375 L 5651.40625 210.234375 L 5681.992188 210.234375 L 5692.382812 209.648438 L 5733.398438 209.648438 L 5743.203125 209.023438 L 5784.21875 209.023438 L 5794.609375 208.398438 L 5835 208.398438 L 5845.390625 207.8125 L 5896.210938 207.8125 L 5906.601562 207.1875 L 5957.382812 207.1875 L 5967.8125 206.5625 L 6028.984375 206.5625 L 6039.414062 205.9375 L 6090.195312 205.9375 L 6100.625 205.351562 L 6171.601562 205.351562 L 6181.992188 204.726562 L 6253.59375 204.726562 L 6263.398438 204.101562 L 6345.390625 204.101562 L 6355.195312 203.515625 L 6446.992188 203.515625 L 6457.382812 202.890625 L 6488.59375 202.890625 " transform="matrix(0.1, 0, 0, -0.1, 0, 450)"/>
<path fill="none" stroke-width="9.18" stroke-linecap="butt" stroke-linejoin="miter" stroke="rgb(0%, 0%, 0%)" stroke-opacity="1" stroke-miterlimit="10" d="M 368.007812 198.007812 L 6488.007812 198.007812 " transform="matrix(0.1, 0, 0, -0.1, 0, 450)"/>
<path fill="none" stroke-width="9.18" stroke-linecap="butt" stroke-linejoin="miter" stroke="rgb(0%, 0%, 0%)" stroke-opacity="1" stroke-miterlimit="10" d="M 368.007812 4481.992188 L 6488.007812 4481.992188 " transform="matrix(0.1, 0, 0, -0.1, 0, 450)"/>
<path fill="none" stroke-width="9.18" stroke-linecap="butt" stroke-linejoin="miter" stroke="rgb(0%, 0%, 0%)" stroke-opacity="1" stroke-miterlimit="10" d="M 1388.203125 198.007812 L 1388.203125 259.179688 " transform="matrix(0.1, 0, 0, -0.1, 0, 450)"/>
<path fill="none" stroke-width="9.18" stroke-linecap="butt" stroke-linejoin="miter" stroke="rgb(0%, 0%, 0%)" stroke-opacity="1" stroke-miterlimit="10" d="M 1388.203125 4481.992188 L 1388.203125 4420.78125 " transform="matrix(0.1, 0, 0, -0.1, 0, 450)"/>
<path fill="none" stroke-width="9.18" stroke-linecap="butt" stroke-linejoin="miter" stroke="rgb(0%, 0%, 0%)" stroke-opacity="1" stroke-miterlimit="10" d="M 3428.007812 198.007812 L 3428.007812 259.179688 " transform="matrix(0.1, 0, 0, -0.1, 0, 450)"/>
<path fill="none" stroke-width="9.18" stroke-linecap="butt" stroke-linejoin="miter" stroke="rgb(0%, 0%, 0%)" stroke-opacity="1" stroke-miterlimit="10" d="M 3428.007812 4481.992188 L 3428.007812 4420.78125 " transform="matrix(0.1, 0, 0, -0.1, 0, 450)"/>
<path fill="none" stroke-width="9.18" stroke-linecap="butt" stroke-linejoin="miter" stroke="rgb(0%, 0%, 0%)" stroke-opacity="1" stroke-miterlimit="10" d="M 5467.8125 198.007812 L 5467.8125 259.179688 " transform="matrix(0.1, 0, 0, -0.1, 0, 450)"/>
<path fill="none" stroke-width="9.18" stroke-linecap="butt" stroke-linejoin="miter" stroke="rgb(0%, 0%, 0%)" stroke-opacity="1" stroke-miterlimit="10" d="M 5467.8125 4481.992188 L 5467.8125 4420.78125 " transform="matrix(0.1, 0, 0, -0.1, 0, 450)"/>
<path fill="none" stroke-width="9.18" stroke-linecap="butt" stroke-linejoin="miter" stroke="rgb(0%, 0%, 0%)" stroke-opacity="1" stroke-miterlimit="10" d="M 368.007812 198.007812 L 368.007812 320.390625 " transform="matrix(0.1, 0, 0, -0.1, 0, 450)"/>
<path fill="none" stroke-width="9.18" stroke-linecap="butt" stroke-linejoin="miter" stroke="rgb(0%, 0%, 0%)" stroke-opacity="1" stroke-miterlimit="10" d="M 368.007812 4481.992188 L 368.007812 4359.609375 " transform="matrix(0.1, 0, 0, -0.1, 0, 450)"/>
<path fill="none" stroke-width="9.18" stroke-linecap="butt" stroke-linejoin="miter" stroke="rgb(0%, 0%, 0%)" stroke-opacity="1" stroke-miterlimit="10" d="M 2407.8125 198.007812 L 2407.8125 320.390625 " transform="matrix(0.1, 0, 0, -0.1, 0, 450)"/>
<path fill="none" stroke-width="9.18" stroke-linecap="butt" stroke-linejoin="miter" stroke="rgb(0%, 0%, 0%)" stroke-opacity="1" stroke-miterlimit="10" d="M 2407.8125 4481.992188 L 2407.8125 4359.609375 " transform="matrix(0.1, 0, 0, -0.1, 0, 450)"/>
<path fill="none" stroke-width="9.18" stroke-linecap="butt" stroke-linejoin="miter" stroke="rgb(0%, 0%, 0%)" stroke-opacity="1" stroke-miterlimit="10" d="M 4448.203125 198.007812 L 4448.203125 320.390625 " transform="matrix(0.1, 0, 0, -0.1, 0, 450)"/>
<path fill="none" stroke-width="9.18" stroke-linecap="butt" stroke-linejoin="miter" stroke="rgb(0%, 0%, 0%)" stroke-opacity="1" stroke-miterlimit="10" d="M 4448.203125 4481.992188 L 4448.203125 4359.609375 " transform="matrix(0.1, 0, 0, -0.1, 0, 450)"/>
<g fill="rgb(0%, 0%, 0%)" fill-opacity="1">
<use xlink:href="#glyph-0-0" x="32.6996" y="447.82578"/>
</g>
<g fill="rgb(0%, 0%, 0%)" fill-opacity="1">
<use xlink:href="#glyph-0-0" x="230.25369" y="447.82578"/>
<use xlink:href="#glyph-0-1" x="238.82169" y="447.82578"/>
<use xlink:href="#glyph-0-2" x="243.10569" y="447.82578"/>
</g>
<g fill="rgb(0%, 0%, 0%)" fill-opacity="1">
<use xlink:href="#glyph-0-0" x="434.233779" y="447.82578"/>
<use xlink:href="#glyph-0-1" x="442.801779" y="447.82578"/>
<use xlink:href="#glyph-0-3" x="447.085779" y="447.82578"/>
</g>
<path fill="none" stroke-width="9.18" stroke-linecap="butt" stroke-linejoin="miter" stroke="rgb(0%, 0%, 0%)" stroke-opacity="1" stroke-miterlimit="10" d="M 368.007812 198.007812 L 368.007812 4481.992188 " transform="matrix(0.1, 0, 0, -0.1, 0, 450)"/>
<path fill="none" stroke-width="9.18" stroke-linecap="butt" stroke-linejoin="miter" stroke="rgb(0%, 0%, 0%)" stroke-opacity="1" stroke-miterlimit="10" d="M 6488.007812 198.007812 L 6488.007812 4481.992188 " transform="matrix(0.1, 0, 0, -0.1, 0, 450)"/>
<path fill="none" stroke-width="9.18" stroke-linecap="butt" stroke-linejoin="miter" stroke="rgb(0%, 0%, 0%)" stroke-opacity="1" stroke-miterlimit="10" d="M 368.007812 684.53125 L 429.179688 684.53125 " transform="matrix(0.1, 0, 0, -0.1, 0, 450)"/>
<path fill="none" stroke-width="9.18" stroke-linecap="butt" stroke-linejoin="miter" stroke="rgb(0%, 0%, 0%)" stroke-opacity="1" stroke-miterlimit="10" d="M 6488.007812 684.53125 L 6426.796875 684.53125 " transform="matrix(0.1, 0, 0, -0.1, 0, 450)"/>
<path fill="none" stroke-width="9.18" stroke-linecap="butt" stroke-linejoin="miter" stroke="rgb(0%, 0%, 0%)" stroke-opacity="1" stroke-miterlimit="10" d="M 368.007812 1658.242188 L 429.179688 1658.242188 " transform="matrix(0.1, 0, 0, -0.1, 0, 450)"/>
<path fill="none" stroke-width="9.18" stroke-linecap="butt" stroke-linejoin="miter" stroke="rgb(0%, 0%, 0%)" stroke-opacity="1" stroke-miterlimit="10" d="M 6488.007812 1658.242188 L 6426.796875 1658.242188 " transform="matrix(0.1, 0, 0, -0.1, 0, 450)"/>
<path fill="none" stroke-width="9.18" stroke-linecap="butt" stroke-linejoin="miter" stroke="rgb(0%, 0%, 0%)" stroke-opacity="1" stroke-miterlimit="10" d="M 368.007812 2631.914062 L 429.179688 2631.914062 " transform="matrix(0.1, 0, 0, -0.1, 0, 450)"/>
<path fill="none" stroke-width="9.18" stroke-linecap="butt" stroke-linejoin="miter" stroke="rgb(0%, 0%, 0%)" stroke-opacity="1" stroke-miterlimit="10" d="M 6488.007812 2631.914062 L 6426.796875 2631.914062 " transform="matrix(0.1, 0, 0, -0.1, 0, 450)"/>
<path fill="none" stroke-width="9.18" stroke-linecap="butt" stroke-linejoin="miter" stroke="rgb(0%, 0%, 0%)" stroke-opacity="1" stroke-miterlimit="10" d="M 368.007812 3605.625 L 429.179688 3605.625 " transform="matrix(0.1, 0, 0, -0.1, 0, 450)"/>
<path fill="none" stroke-width="9.18" stroke-linecap="butt" stroke-linejoin="miter" stroke="rgb(0%, 0%, 0%)" stroke-opacity="1" stroke-miterlimit="10" d="M 6488.007812 3605.625 L 6426.796875 3605.625 " transform="matrix(0.1, 0, 0, -0.1, 0, 450)"/>
<path fill="none" stroke-width="9.18" stroke-linecap="butt" stroke-linejoin="miter" stroke="rgb(0%, 0%, 0%)" stroke-opacity="1" stroke-miterlimit="10" d="M 368.007812 198.007812 L 490.390625 198.007812 " transform="matrix(0.1, 0, 0, -0.1, 0, 450)"/>
<path fill="none" stroke-width="9.18" stroke-linecap="butt" stroke-linejoin="miter" stroke="rgb(0%, 0%, 0%)" stroke-opacity="1" stroke-miterlimit="10" d="M 6488.007812 198.007812 L 6365.585938 198.007812 " transform="matrix(0.1, 0, 0, -0.1, 0, 450)"/>
<path fill="none" stroke-width="9.18" stroke-linecap="butt" stroke-linejoin="miter" stroke="rgb(0%, 0%, 0%)" stroke-opacity="1" stroke-miterlimit="10" d="M 368.007812 1171.679688 L 490.390625 1171.679688 " transform="matrix(0.1, 0, 0, -0.1, 0, 450)"/>
<path fill="none" stroke-width="9.18" stroke-linecap="butt" stroke-linejoin="miter" stroke="rgb(0%, 0%, 0%)" stroke-opacity="1" stroke-miterlimit="10" d="M 6488.007812 1171.679688 L 6365.585938 1171.679688 " transform="matrix(0.1, 0, 0, -0.1, 0, 450)"/>
<path fill="none" stroke-width="9.18" stroke-linecap="butt" stroke-linejoin="miter" stroke="rgb(0%, 0%, 0%)" stroke-opacity="1" stroke-miterlimit="10" d="M 368.007812 2145.390625 L 490.390625 2145.390625 " transform="matrix(0.1, 0, 0, -0.1, 0, 450)"/>
<path fill="none" stroke-width="9.18" stroke-linecap="butt" stroke-linejoin="miter" stroke="rgb(0%, 0%, 0%)" stroke-opacity="1" stroke-miterlimit="10" d="M 6488.007812 2145.390625 L 6365.585938 2145.390625 " transform="matrix(0.1, 0, 0, -0.1, 0, 450)"/>
<path fill="none" stroke-width="9.18" stroke-linecap="butt" stroke-linejoin="miter" stroke="rgb(0%, 0%, 0%)" stroke-opacity="1" stroke-miterlimit="10" d="M 368.007812 3119.0625 L 490.390625 3119.0625 " transform="matrix(0.1, 0, 0, -0.1, 0, 450)"/>
<path fill="none" stroke-width="9.18" stroke-linecap="butt" stroke-linejoin="miter" stroke="rgb(0%, 0%, 0%)" stroke-opacity="1" stroke-miterlimit="10" d="M 6488.007812 3119.0625 L 6365.585938 3119.0625 " transform="matrix(0.1, 0, 0, -0.1, 0, 450)"/>
<path fill="none" stroke-width="9.18" stroke-linecap="butt" stroke-linejoin="miter" stroke="rgb(0%, 0%, 0%)" stroke-opacity="1" stroke-miterlimit="10" d="M 368.007812 4092.773438 L 490.390625 4092.773438 " transform="matrix(0.1, 0, 0, -0.1, 0, 450)"/>
<path fill="none" stroke-width="9.18" stroke-linecap="butt" stroke-linejoin="miter" stroke="rgb(0%, 0%, 0%)" stroke-opacity="1" stroke-miterlimit="10" d="M 6488.007812 4092.773438 L 6365.585938 4092.773438 " transform="matrix(0.1, 0, 0, -0.1, 0, 450)"/>
<g fill="rgb(0%, 0%, 0%)" fill-opacity="1">
<use xlink:href="#glyph-0-0" x="22.5402" y="435.8305"/>
</g>
<g fill="rgb(0%, 0%, 0%)" fill-opacity="1">
<use xlink:href="#glyph-0-0" x="1.8547" y="338.5836"/>
<use xlink:href="#glyph-0-1" x="10.4227" y="338.5836"/>
<use xlink:href="#glyph-0-0" x="14.7067" y="338.5836"/>
<use xlink:href="#glyph-0-4" x="23.2747" y="338.5836"/>
</g>
<g fill="rgb(0%, 0%, 0%)" fill-opacity="1">
<use xlink:href="#glyph-0-0" x="10.97345" y="241.0922"/>
<use xlink:href="#glyph-0-1" x="19.54145" y="241.0922"/>
<use xlink:href="#glyph-0-5" x="23.82545" y="241.0922"/>
</g>
<g fill="rgb(0%, 0%, 0%)" fill-opacity="1">
<use xlink:href="#glyph-0-0" x="1.8547" y="143.8453"/>
<use xlink:href="#glyph-0-1" x="10.4227" y="143.8453"/>
<use xlink:href="#glyph-0-5" x="14.7067" y="143.8453"/>
<use xlink:href="#glyph-0-4" x="23.2747" y="143.8453"/>
</g>
<g fill="rgb(0%, 0%, 0%)" fill-opacity="1">
<use xlink:href="#glyph-0-0" x="9.56603" y="46.4148"/>
<use xlink:href="#glyph-0-1" x="18.13403" y="46.4148"/>
<use xlink:href="#glyph-0-2" x="22.41803" y="46.4148"/>
</g>
<path fill="none" stroke-width="9.18" stroke-linecap="butt" stroke-linejoin="miter" stroke="rgb(0%, 0%, 0%)" stroke-opacity="1" stroke-miterlimit="10" d="M 368.007812 198.007812 L 6488.007812 198.007812 L 6488.007812 4481.992188 L 368.007812 4481.992188 Z M 368.007812 198.007812 " transform="matrix(0.1, 0, 0, -0.1, 0, 450)"/>
</svg>
