<?xml version="1.0" encoding="UTF-8" standalone="no"?>
<svg
   xmlns:ns0="http://www.iki.fi/pav/software/textext/"
   xmlns:dc="http://purl.org/dc/elements/1.1/"
   xmlns:cc="http://creativecommons.org/ns#"
   xmlns:rdf="http://www.w3.org/1999/02/22-rdf-syntax-ns#"
   xmlns:svg="http://www.w3.org/2000/svg"
   xmlns="http://www.w3.org/2000/svg"
   xmlns:xlink="http://www.w3.org/1999/xlink"
   xmlns:sodipodi="http://sodipodi.sourceforge.net/DTD/sodipodi-0.dtd"
   xmlns:inkscape="http://www.inkscape.org/namespaces/inkscape"
   width="744.09448819"
   height="1052.3622047"
   id="svg2"
   version="1.1"
   inkscape:version="1.0.1 (c497b03c, 2020-09-10)"
   sodipodi:docname="plastdamyieldfig.svg">
  <sodipodi:namedview
     id="base"
     pagecolor="#ffffff"
     bordercolor="#666666"
     borderopacity="1.0"
     inkscape:pageopacity="0.0"
     inkscape:pageshadow="2"
     inkscape:zoom="1.1233092"
     inkscape:cx="369.55542"
     inkscape:cy="332.30499"
     inkscape:document-units="cm"
     inkscape:current-layer="layer1"
     showgrid="false"
     inkscape:window-width="1440"
     inkscape:window-height="855"
     inkscape:window-x="4"
     inkscape:window-y="23"
     inkscape:window-maximized="0"
     showguides="true"
     inkscape:guide-bbox="true"
     inkscape:document-rotation="0" />
  <defs
     id="defs4">
    <marker
       style="overflow:visible"
       id="Arrow2Lstart"
       refX="0.0"
       refY="0.0"
       orient="auto"
       inkscape:stockid="Arrow2Lstart">
      <path
         transform="scale(1.1) translate(1,0)"
         d="M 8.7185878,4.0337352 L -2.2072895,0.016013256 L 8.7185884,-4.0017078 C 6.9730900,-1.6296469 6.9831476,1.6157441 8.7185878,4.0337352 z "
         style="font-size:12.0;fill-rule:evenodd;stroke-width:0.62500000;stroke-linejoin:round"
         id="path4202" />
    </marker>
    <marker
       style="overflow:visible"
       id="TriangleOutL"
       refX="0.0"
       refY="0.0"
       orient="auto"
       inkscape:stockid="TriangleOutL">
      <path
         transform="scale(0.8)"
         style="fill-rule:evenodd;stroke:#000000;stroke-width:1.0pt;marker-start:none"
         d="M 5.77,0.0 L -2.88,5.0 L -2.88,-5.0 L 5.77,0.0 z "
         id="path3760" />
    </marker>
    <marker
       style="overflow:visible;"
       id="Arrow2Lend"
       refX="0.0"
       refY="0.0"
       orient="auto"
       inkscape:stockid="Arrow2Lend">
      <path
         transform="scale(1.1) rotate(180) translate(1,0)"
         d="M 8.7185878,4.0337352 L -2.2072895,0.016013256 L 8.7185884,-4.0017078 C 6.9730900,-1.6296469 6.9831476,1.6157441 8.7185878,4.0337352 z "
         style="font-size:12.0;fill-rule:evenodd;stroke-width:0.62500000;stroke-linejoin:round;"
         id="path3638" />
    </marker>
    <inkscape:perspective
       id="perspective10"
       inkscape:persp3d-origin="372.04724 : 350.78739 : 1"
       inkscape:vp_z="744.09448 : 526.18109 : 1"
       inkscape:vp_y="0 : 1000 : 0"
       inkscape:vp_x="107.34168 : 748.53172 : 1"
       sodipodi:type="inkscape:persp3d" />
    <inkscape:perspective
       sodipodi:type="inkscape:persp3d"
       inkscape:vp_x="0 : 0.5 : 1"
       inkscape:vp_y="0 : 1000 : 0"
       inkscape:vp_z="1 : 0.5 : 1"
       inkscape:persp3d-origin="0.5 : 0.33333333 : 1"
       id="perspective2824" />
    <inkscape:perspective
       sodipodi:type="inkscape:persp3d"
       inkscape:vp_x="0 : 0.5 : 1"
       inkscape:vp_y="0 : 1000 : 0"
       inkscape:vp_z="1 : 0.5 : 1"
       inkscape:persp3d-origin="0.5 : 0.33333333 : 1"
       id="perspective3432" />
    <inkscape:perspective
       sodipodi:type="inkscape:persp3d"
       inkscape:vp_x="0 : 0.5 : 1"
       inkscape:vp_y="0 : 1000 : 0"
       inkscape:vp_z="1 : 0.5 : 1"
       inkscape:persp3d-origin="0.5 : 0.33333333 : 1"
       id="perspective4246" />
    <inkscape:perspective
       sodipodi:type="inkscape:persp3d"
       inkscape:vp_x="0 : 0.5 : 1"
       inkscape:vp_y="0 : 1000 : 0"
       inkscape:vp_z="1 : 0.5 : 1"
       inkscape:persp3d-origin="0.5 : 0.33333333 : 1"
       id="perspective4268" />
    <inkscape:perspective
       sodipodi:type="inkscape:persp3d"
       inkscape:vp_x="0 : 0.5 : 1"
       inkscape:vp_y="0 : 1000 : 0"
       inkscape:vp_z="1 : 0.5 : 1"
       inkscape:persp3d-origin="0.5 : 0.33333333 : 1"
       id="perspective4370" />
    <inkscape:perspective
       sodipodi:type="inkscape:persp3d"
       inkscape:vp_x="0 : 0.5 : 1"
       inkscape:vp_y="0 : 1000 : 0"
       inkscape:vp_z="1 : 0.5 : 1"
       inkscape:persp3d-origin="0.5 : 0.33333333 : 1"
       id="perspective4370-0" />
    <inkscape:perspective
       sodipodi:type="inkscape:persp3d"
       inkscape:vp_x="0 : 0.5 : 1"
       inkscape:vp_y="0 : 1000 : 0"
       inkscape:vp_z="1 : 0.5 : 1"
       inkscape:persp3d-origin="0.5 : 0.33333333 : 1"
       id="perspective7198" />
    <inkscape:perspective
       sodipodi:type="inkscape:persp3d"
       inkscape:vp_x="0 : 0.5 : 1"
       inkscape:vp_y="0 : 1000 : 0"
       inkscape:vp_z="1 : 0.5 : 1"
       inkscape:persp3d-origin="0.5 : 0.33333333 : 1"
       id="perspective7212" />
    <inkscape:perspective
       sodipodi:type="inkscape:persp3d"
       inkscape:vp_x="0 : 0.5 : 1"
       inkscape:vp_y="0 : 1000 : 0"
       inkscape:vp_z="1 : 0.5 : 1"
       inkscape:persp3d-origin="0.5 : 0.33333333 : 1"
       id="perspective7226" />
    <inkscape:perspective
       sodipodi:type="inkscape:persp3d"
       inkscape:vp_x="0 : 0.5 : 1"
       inkscape:vp_y="0 : 1000 : 0"
       inkscape:vp_z="1 : 0.5 : 1"
       inkscape:persp3d-origin="0.5 : 0.33333333 : 1"
       id="perspective7515" />
    <inkscape:perspective
       sodipodi:type="inkscape:persp3d"
       inkscape:vp_x="0 : 0.5 : 1"
       inkscape:vp_y="0 : 1000 : 0"
       inkscape:vp_z="1 : 0.5 : 1"
       inkscape:persp3d-origin="0.5 : 0.33333333 : 1"
       id="perspective8254" />
    <inkscape:perspective
       sodipodi:type="inkscape:persp3d"
       inkscape:vp_x="0 : 0.5 : 1"
       inkscape:vp_y="0 : 1000 : 0"
       inkscape:vp_z="1 : 0.5 : 1"
       inkscape:persp3d-origin="0.5 : 0.33333333 : 1"
       id="perspective23714" />
    <inkscape:perspective
       id="perspective5961"
       inkscape:persp3d-origin="0.5 : 0.33333333 : 1"
       inkscape:vp_z="1 : 0.5 : 1"
       inkscape:vp_y="0 : 1000 : 0"
       inkscape:vp_x="0 : 0.5 : 1"
       sodipodi:type="inkscape:persp3d" />
    <inkscape:perspective
       sodipodi:type="inkscape:persp3d"
       inkscape:vp_x="0 : 0.5 : 1"
       inkscape:vp_y="0 : 1000 : 0"
       inkscape:vp_z="1 : 0.5 : 1"
       inkscape:persp3d-origin="0.5 : 0.33333333 : 1"
       id="perspective6125" />
  </defs>
  <metadata
     id="metadata7">
    <rdf:RDF>
      <cc:Work
         rdf:about="">
        <dc:format>image/svg+xml</dc:format>
        <dc:type
           rdf:resource="http://purl.org/dc/dcmitype/StillImage" />
        <dc:title></dc:title>
      </cc:Work>
    </rdf:RDF>
  </metadata>
  <g
     id="layer1"
     inkscape:groupmode="layer"
     inkscape:label="Layer 1">
    <path
       id="path4296"
       d=""
       style="fill:#000000;fill-opacity:1;fill-rule:evenodd;stroke:#020000;stroke-width:1.06299210000000000;stroke-miterlimit:4;stroke-opacity:0.99586779999999997;stroke-dasharray:none;stroke-dashoffset:0" />
    <text
       id="text6895"
       y="398.08905"
       x="420.84756"
       style="font-style:normal;font-variant:normal;font-weight:normal;font-stretch:normal;line-height:0%;font-family:Arial;-inkscape-font-specification:Arial;text-align:start;writing-mode:lr-tb;text-anchor:start;fill:#000000;fill-opacity:1;stroke:none"
       xml:space="preserve"><tspan
         y="398.08905"
         x="420.84756"
         id="tspan6897"
         sodipodi:role="line"
         style="font-size:12px;line-height:1.25"> </tspan></text>
    <text
       id="text18563"
       y="345.11215"
       x="235.25369"
       style="font-style:normal;font-variant:normal;font-weight:normal;font-stretch:normal;line-height:0%;font-family:Arial;-inkscape-font-specification:Arial;text-align:start;writing-mode:lr-tb;text-anchor:start;fill:#000000;fill-opacity:1;stroke:none"
       xml:space="preserve"><tspan
         y="345.11215"
         x="235.25369"
         id="tspan18565"
         sodipodi:role="line"
         style="font-size:12px;line-height:1.25"> </tspan></text>
    <path
       sodipodi:nodetypes="cc"
       id="path23968"
       d="m 487.64753,360.00809 0,-135.47576"
       style="fill:none;stroke:#000000;stroke-width:0.70866142;stroke-linecap:butt;stroke-linejoin:miter;stroke-opacity:1;marker-end:url(#Arrow2Lend);stroke-miterlimit:4;stroke-dasharray:none" />
    <path
       id="path23970"
       d="m 234.29782,360.00809 313.87301,0"
       style="fill:none;stroke:#000000;stroke-width:0.70866142;stroke-linecap:butt;stroke-linejoin:miter;stroke-opacity:1;stroke-miterlimit:4;stroke-dasharray:none;marker-end:url(#Arrow2Lend)"
       sodipodi:nodetypes="cc" />
    <path
       sodipodi:nodetypes="cs"
       id="path23980"
       d="m 252.13364,359.60273 c -1e-5,-88.36839 41.74711,-112.00851 56.75033,-111.87924"
       style="fill:none;stroke:#000000;stroke-width:1.06299213;stroke-linecap:butt;stroke-linejoin:miter;stroke-opacity:1;stroke-miterlimit:4;stroke-dasharray:none" />
    <path
       style="fill:none;stroke:#000000;stroke-width:0.99212599;stroke-linecap:butt;stroke-linejoin:miter;stroke-opacity:1;stroke-miterlimit:4;stroke-dasharray:3.96850395,3.96850395;stroke-dashoffset:4.66299214"
       d="M 308.96126,359.45138 308.75941,247.41606"
       id="path24795"
       sodipodi:nodetypes="cc" />
    <path
       style="fill:none;stroke:#000000;stroke-width:0.99212599;stroke-linecap:butt;stroke-linejoin:miter;stroke-miterlimit:4;stroke-opacity:1;stroke-dasharray:3.96850395,3.96850395;stroke-dashoffset:4.66299214"
       d="M 252.72232,359.99989 309.44355,247.76857"
       id="path24797" />
    <path
       sodipodi:type="arc"
       style="fill:#020202;fill-opacity:1;stroke:#010101;stroke-width:0.86258851999999986;stroke-miterlimit:4;stroke-opacity:1;stroke-dasharray:none;stroke-dashoffset:0"
       id="path24799"
       sodipodi:cx="333.85324"
       sodipodi:cy="255.72083"
       sodipodi:rx="2.8277187"
       sodipodi:ry="2.8277187"
       d="m 331.03913,255.99787 a 2.8277187,2.8277187 0 1 1 3.5e-4,0.004"
       sodipodi:start="3.0434602"
       sodipodi:end="9.3253877"
       sodipodi:open="true"
       transform="matrix(0.82155212,0,0,0.82155211,35.371925,37.450037)" />
    <path
       transform="matrix(0.82155212,0,0,0.82155211,-22.560429,150.08507)"
       sodipodi:open="true"
       sodipodi:end="9.3253877"
       sodipodi:start="3.0434602"
       d="m 331.03913,255.99787 a 2.8277187,2.8277187 0 1 1 3.5e-4,0.004"
       sodipodi:ry="2.8277187"
       sodipodi:rx="2.8277187"
       sodipodi:cy="255.72083"
       sodipodi:cx="333.85324"
       id="path24801"
       style="fill:#020202;fill-opacity:1;stroke:#010101;stroke-width:0.86258852;stroke-miterlimit:4;stroke-opacity:1;stroke-dasharray:none;stroke-dashoffset:0"
       sodipodi:type="arc" />
    <path
       style="fill:none;stroke:#000000;stroke-width:1.0629921;stroke-linecap:butt;stroke-linejoin:miter;stroke-miterlimit:4;stroke-opacity:1;stroke-dasharray:none"
       d="m 310.16216,247.92591 c 88.36839,-10e-6 198.30334,70.51205 198.17407,112.17546"
       id="path5370"
       sodipodi:nodetypes="cs" />
    <path
       id="path5530"
       d="M 507.9468,359.8988 309.74932,247.64537"
       style="fill:none;stroke:#000000;stroke-width:0.99212598;stroke-linecap:butt;stroke-linejoin:miter;stroke-opacity:1;stroke-miterlimit:4;stroke-dasharray:2.97637795,2.97637795;stroke-dashoffset:0" />
    <path
       id="path7233"
       d="m 443.75186,323.76724 -29.11574,0 0,-16.83802"
       style="fill:none;stroke:#000000;stroke-width:0.99212598;stroke-linecap:butt;stroke-linejoin:miter;stroke-opacity:1;stroke-miterlimit:4;stroke-dasharray:2.97637795,2.97637795;stroke-dashoffset:0" />
    <path
       id="path7235"
       d="m 290.80655,284.82933 0,28.06336 -14.38247,0"
       style="fill:none;stroke:#000000;stroke-width:1;stroke-linecap:butt;stroke-linejoin:miter;stroke-opacity:1;stroke-miterlimit:4;stroke-dasharray:3,3;stroke-dashoffset:0" />
    <g
       id="g4300"
       transform="matrix(1.125,0,0,-1.125,-8.58804,1169.5223)"
       xml:space="preserve"
       stroke="black"
       stroke-linecap="butt"
       stroke-linejoin="miter"
       stroke-miterlimit="10.433"
       stroke-dasharray="none"
       stroke-dashoffset="0"
       stroke-opacity="1"
       fill="none"
       fill-rule="evenodd"
       fill-opacity="1"
       font-style="normal"
       font-variant="normal"
       font-weight="normal"
       font-stretch="normal"
       font-size-adjust="none"
       letter-spacing="normal"
       word-spacing="normal"
       text-anchor="start"
       ns0:text="$- f_{\\rm c}$\n\n\n\n\n\n"
       ns0:preamble=""
       style="font-style:normal;font-variant:normal;font-weight:normal;font-stretch:normal;letter-spacing:normal;word-spacing:normal;text-anchor:start;fill:none;stroke:#000000;stroke-width:0.8888889;stroke-linecap:butt;stroke-linejoin:miter;stroke-miterlimit:10.43299961;stroke-opacity:1;stroke-dasharray:none;stroke-dashoffset:0"><path
         d="M230,709.41 L230.03,709.41 L230.06,709.41 L230.09,709.42 L230.11,709.42 L230.12,709.42 L230.14,709.42 L230.15,709.42 L230.17,709.42 L230.18,709.42 L230.2,709.43 L230.21,709.43 L230.22,709.43 L230.24,709.44 L230.25,709.44 L230.26,709.45 L230.27,709.46 L230.28,709.46 L230.29,709.47 L230.3,709.48 L230.31,709.49 L230.32,709.5 L230.32,709.5 L230.32,709.51 L230.33,709.51 L230.33,709.52 L230.33,709.53 L230.33,709.53 L230.34,709.54 L230.34,709.55 L230.34,709.55 L230.34,709.56 L230.34,709.57 L230.34,709.58 L230.35,709.59 L230.35,709.59 L230.35,709.6 L230.35,709.61 C230.35,709.81,230.17,709.81,230,709.81 H224.61 C224.44,709.81,224.26,709.81,224.26,709.61 C224.26,709.41,224.44,709.41,224.61,709.41 Z "
         stroke-width="0"
         fill="black"
         id="path4302" /><path
         d="M234.84,711.11 H235.69 C235.89,711.11,235.99,711.11,235.99,711.31 C235.99,711.42,235.89,711.42,235.72,711.42 H234.9 L235.1,712.55 C235.15,712.76,235.29,713.47,235.34,713.59 C235.43,713.78,235.6,713.93,235.81,713.93 C235.85,713.93,236.11,713.93,236.3,713.75 C235.86,713.71,235.76,713.36,235.76,713.21 C235.76,712.98,235.94,712.86,236.13,712.86 C236.39,712.86,236.68,713.08,236.68,713.46 C236.68,713.92,236.22,714.15,235.81,714.15 C235.47,714.15,234.85,713.97,234.55,712.98 C234.49,712.77,234.46,712.67,234.22,711.42 H233.53 C233.34,711.42,233.23,711.42,233.23,711.23 C233.23,711.11,233.32,711.11,233.51,711.11 H234.17 L233.42,707.17 C233.24,706.21,233.07,705.3,232.55,705.3 C232.51,705.3,232.27,705.3,232.08,705.48 C232.54,705.51,232.62,705.87,232.62,706.02 C232.62,706.25,232.45,706.36,232.26,706.36 C232,706.36,231.71,706.15,231.71,705.77 C231.71,705.32,232.15,705.08,232.55,705.08 C233.1,705.08,233.5,705.67,233.68,706.05 C234,706.67,234.23,707.88,234.24,707.95 Z "
         stroke-width="0"
         fill="black"
         id="path4304" /><path
         d="M238.77,708.41 L238.76,708.41 L238.75,708.4 L238.73,708.4 L238.72,708.39 L238.71,708.38 L238.7,708.38 L238.69,708.37 L238.68,708.36 L238.68,708.35 L238.67,708.34 L238.66,708.34 L238.65,708.33 L238.64,708.32 L238.64,708.31 L238.63,708.3 L238.62,708.29 L238.62,708.28 L238.61,708.27 L238.61,708.26 L238.6,708.25 L238.6,708.24 L238.59,708.23 L238.59,708.22 L238.59,708.2 L238.58,708.19 L238.58,708.18 L238.58,708.17 L238.58,708.16 L238.57,708.14 L238.57,708.13 L238.57,708.12 L238.57,708.11 C238.57,707.92,238.71,707.78,238.9,707.78 C239.09,707.78,239.24,707.9,239.24,708.12 C239.24,708.74,238.27,708.74,238.07,708.74 C237.02,708.74,236.38,707.94,236.38,707.14 C236.38,706.26,237.12,705.56,238.04,705.56 C239.07,705.56,239.32,706.38,239.32,706.47 C239.32,706.55,239.23,706.55,239.2,706.55 C239.11,706.55,239.1,706.53,239.07,706.43 C238.91,706,238.54,705.78,238.12,705.78 C237.64,705.78,237.01,706.14,237.01,707.14 C237.01,708.03,237.44,708.52,238.09,708.52 C238.18,708.52,238.52,708.52,238.77,708.41 Z "
         stroke-width="0"
         fill="black"
         id="path4306" /></g>
    <g
       style="font-style:normal;font-variant:normal;font-weight:normal;font-stretch:normal;letter-spacing:normal;word-spacing:normal;text-anchor:start;fill:none;stroke:#000000;stroke-width:0.8888889;stroke-linecap:butt;stroke-linejoin:miter;stroke-miterlimit:10.43299961;stroke-opacity:1;stroke-dasharray:none;stroke-dashoffset:0"
       ns0:preamble=""
       ns0:text="$f_{\\rm t}$\n\n\n\n\n"
       text-anchor="start"
       word-spacing="normal"
       letter-spacing="normal"
       font-size-adjust="none"
       font-stretch="normal"
       font-weight="normal"
       font-variant="normal"
       font-style="normal"
       fill-opacity="1"
       fill-rule="evenodd"
       fill="none"
       stroke-opacity="1"
       stroke-dashoffset="0"
       stroke-dasharray="none"
       stroke-miterlimit="10.433"
       stroke-linejoin="miter"
       stroke-linecap="butt"
       stroke="black"
       xml:space="preserve"
       transform="matrix(1.125,0,0,-1.125,251.82611,1167.4175)"
       id="content"><path
         id="path4431"
         fill="black"
         stroke-width="0"
         d="M227.09,711.11 H227.95 C228.15,711.11,228.24,711.11,228.24,711.31 C228.24,711.42,228.15,711.42,227.98,711.42 H227.15 L227.36,712.55 C227.4,712.76,227.54,713.47,227.6,713.59 C227.69,713.78,227.86,713.93,228.07,713.93 C228.1,713.93,228.36,713.93,228.55,713.75 C228.12,713.71,228.01,713.36,228.01,713.21 C228.01,712.98,228.2,712.86,228.38,712.86 C228.64,712.86,228.93,713.08,228.93,713.46 C228.93,713.92,228.47,714.15,228.07,714.15 C227.73,714.15,227.1,713.97,226.8,712.98 C226.74,712.77,226.71,712.67,226.47,711.42 H225.78 C225.59,711.42,225.49,711.42,225.49,711.23 C225.49,711.11,225.57,711.11,225.76,711.11 H226.42 L225.67,707.17 C225.49,706.21,225.32,705.3,224.81,705.3 C224.77,705.3,224.52,705.3,224.33,705.48 C224.79,705.51,224.88,705.87,224.88,706.02 C224.88,706.25,224.7,706.36,224.51,706.36 C224.25,706.36,223.96,706.15,223.96,705.77 C223.96,705.32,224.4,705.08,224.81,705.08 C225.35,705.08,225.75,705.67,225.93,706.05 C226.25,706.67,226.48,707.88,226.49,707.95 Z " /><path
         id="path4433"
         fill="black"
         stroke-width="0"
         d="M229.71,708.39 H230.8 V708.64 H229.71 V709.92 H229.47 C229.46,709.29,229.18,708.6,228.51,708.58 V708.39 H229.16 V706.5 C229.16,705.72,229.74,705.56,230.13,705.56 C230.6,705.56,230.92,705.96,230.92,706.51 V706.89 H230.69 V706.52 C230.69,706.04,230.46,705.78,230.19,705.78 C229.71,705.78,229.71,706.37,229.71,706.49 Z " /></g>
    <g
       id="g5751"
       transform="matrix(1.125,0,0,-1.125,287.82611,1167.4175)"
       xml:space="preserve"
       stroke="black"
       stroke-linecap="butt"
       stroke-linejoin="miter"
       stroke-miterlimit="10.433"
       stroke-dasharray="none"
       stroke-dashoffset="0"
       stroke-opacity="1"
       fill="none"
       fill-rule="evenodd"
       fill-opacity="1"
       font-style="normal"
       font-variant="normal"
       font-weight="normal"
       font-stretch="normal"
       font-size-adjust="none"
       letter-spacing="normal"
       word-spacing="normal"
       text-anchor="start"
       ns0:text="$\\bar{\\sigma}_{\\rm n}$\n\n\n"
       ns0:preamble=""
       style="font-style:normal;font-variant:normal;font-weight:normal;font-stretch:normal;letter-spacing:normal;word-spacing:normal;text-anchor:start;fill:none;stroke:#000000;stroke-width:0.8888889;stroke-linecap:butt;stroke-linejoin:miter;stroke-miterlimit:10.43299961;stroke-opacity:1;stroke-dasharray:none;stroke-dashoffset:0"><polygon
         points="228.25,712.69 228.25,713 224.65,713 224.65,712.69 "
         stroke-width="0"
         fill="black"
         id="polygon5753" /><path
         d="M228.59,710.84 L228.61,710.84 L228.62,710.84 L228.64,710.84 L228.65,710.84 L228.67,710.84 L228.69,710.84 L228.7,710.84 L228.72,710.84 L228.74,710.85 L228.76,710.85 L228.78,710.85 L228.8,710.86 L228.83,710.86 L228.85,710.87 L228.87,710.87 L228.89,710.88 L228.91,710.89 L228.92,710.9 L228.94,710.91 L228.96,710.92 L228.98,710.93 L228.99,710.95 L229,710.96 L229.01,710.96 L229.02,710.97 L229.02,710.98 L229.03,710.99 L229.04,711 L229.04,711.01 L229.05,711.02 L229.05,711.03 L229.06,711.04 L229.06,711.05 L229.07,711.07 L229.07,711.08 L229.07,711.09 L229.07,711.1 L229.08,711.12 L229.08,711.13 L229.08,711.15 L229.08,711.16 L229.08,711.18 C229.08,711.42,228.87,711.42,228.69,711.42 H226.42 C224.92,711.42,223.81,709.77,223.81,708.59 C223.81,707.71,224.4,707.01,225.3,707.01 L225.32,707.23 C224.83,707.23,224.43,707.59,224.43,708.31 C224.43,708.61,224.55,709.42,224.9,710.01 C225.32,710.7,225.91,710.84,226.25,710.84 C227.09,710.84,227.17,710.18,227.17,709.87 C227.17,709.4,226.97,708.59,226.63,708.08 C226.24,707.49,225.7,707.23,225.32,707.23 H225.32 L225.3,707.01 C226.48,707.01,227.81,708.22,227.81,709.75 C227.81,709.92,227.81,710.4,227.5,710.84 Z "
         stroke-width="0"
         fill="black"
         id="path5755" /><path
         d="M232.72,707.74 L232.72,707.8 L232.71,707.85 L232.71,707.91 L232.7,707.96 L232.69,708.01 L232.68,708.06 L232.67,708.1 L232.66,708.15 L232.64,708.19 L232.62,708.24 L232.6,708.28 L232.58,708.31 L232.56,708.35 L232.53,708.39 L232.5,708.42 L232.47,708.45 L232.44,708.48 L232.41,708.51 L232.37,708.54 L232.33,708.56 L232.29,708.58 L232.24,708.6 L232.2,708.62 L232.15,708.64 L232.1,708.66 L232.04,708.67 L231.99,708.68 L231.93,708.69 L231.87,708.7 L231.8,708.7 L231.74,708.7 L231.67,708.71 C231.1,708.71,230.73,708.39,230.53,708.03 H230.53 V708.71 L229.5,708.63 V708.38 C229.97,708.38,230.02,708.33,230.02,707.99 V706.18 C230.02,705.88,229.96,705.88,229.5,705.88 V705.63 C229.52,705.63,230,705.66,230.3,705.66 C230.55,705.66,231.04,705.64,231.1,705.63 V705.88 C230.65,705.88,230.58,705.88,230.58,706.18 V707.44 C230.58,708.17,231.15,708.51,231.62,708.51 C232.1,708.51,232.17,708.13,232.17,707.77 V706.18 C232.17,705.88,232.1,705.88,231.64,705.88 V705.63 C231.66,705.63,232.15,705.66,232.44,705.66 C232.7,705.66,233.18,705.64,233.24,705.63 V705.88 C232.79,705.88,232.72,705.88,232.72,706.18 Z "
         stroke-width="0"
         fill="black"
         id="path5757" /></g>
    <g
       id="g6047"
       transform="matrix(1,0,0,-1,70.49461,1009.5884)"
       xml:space="preserve"
       stroke="black"
       stroke-linecap="butt"
       stroke-linejoin="miter"
       stroke-miterlimit="10.433"
       stroke-dasharray="none"
       stroke-dashoffset="0"
       stroke-opacity="1"
       fill="none"
       fill-rule="evenodd"
       fill-opacity="1"
       font-style="normal"
       font-variant="normal"
       font-weight="normal"
       font-stretch="normal"
       font-size-adjust="none"
       letter-spacing="normal"
       word-spacing="normal"
       text-anchor="start"
       ns0:text="$1$\n\n\n"
       ns0:preamble=""
       style="font-style:normal;font-variant:normal;font-weight:normal;font-stretch:normal;letter-spacing:normal;word-spacing:normal;text-anchor:start;fill:none;stroke:#000000;stroke-linecap:butt;stroke-linejoin:miter;stroke-miterlimit:10.43299961;stroke-opacity:1;stroke-dasharray:none;stroke-dashoffset:0"><path
         d="M226.36,713.5 L226.36,713.51 L226.36,713.52 L226.36,713.53 L226.36,713.54 L226.36,713.55 L226.36,713.56 L226.36,713.57 L226.36,713.58 L226.36,713.59 L226.36,713.6 L226.36,713.6 L226.36,713.61 L226.36,713.62 L226.36,713.63 L226.36,713.63 L226.36,713.64 L226.36,713.65 L226.36,713.65 L226.35,713.66 L226.35,713.68 L226.35,713.69 L226.35,713.7 L226.34,713.7 L226.34,713.71 L226.33,713.72 L226.33,713.72 L226.32,713.73 L226.31,713.73 L226.31,713.74 L226.3,713.74 L226.29,713.74 L226.29,713.75 L226.28,713.75 L226.28,713.75 L226.27,713.75 L226.26,713.75 L226.26,713.75 L226.25,713.75 L226.25,713.75 L226.24,713.75 L226.23,713.76 L226.22,713.76 L226.22,713.76 L226.21,713.76 L226.2,713.76 L226.19,713.76 L226.18,713.76 L226.17,713.76 L226.16,713.76 L226.15,713.76 L226.14,713.76 L226.13,713.76 C225.51,713.12,224.64,713.12,224.32,713.12 V712.81 C224.52,712.81,225.11,712.81,225.62,713.07 V707.91 C225.62,707.55,225.59,707.43,224.7,707.43 H224.38 V707.12 C224.73,707.15,225.59,707.15,225.99,707.15 C226.39,707.15,227.26,707.15,227.61,707.12 V707.43 H227.29 C226.39,707.43,226.36,707.54,226.36,707.91 Z "
         stroke-width="0"
         fill="black"
         id="path6049" /></g>
    <g
       style="font-style:normal;font-variant:normal;font-weight:normal;font-stretch:normal;letter-spacing:normal;word-spacing:normal;text-anchor:start;fill:none;stroke:#000000;stroke-width:0.8888889;stroke-linecap:butt;stroke-linejoin:miter;stroke-miterlimit:10.43299961;stroke-opacity:1;stroke-dasharray:none;stroke-dashoffset:0"
       ns0:preamble=""
       ns0:text="$1$\n\n\n\n"
       text-anchor="start"
       word-spacing="normal"
       letter-spacing="normal"
       font-size-adjust="none"
       font-stretch="normal"
       font-weight="normal"
       font-variant="normal"
       font-style="normal"
       fill-opacity="1"
       fill-rule="evenodd"
       fill="none"
       stroke-opacity="1"
       stroke-dashoffset="0"
       stroke-dasharray="none"
       stroke-miterlimit="10.433"
       stroke-linejoin="miter"
       stroke-linecap="butt"
       stroke="black"
       xml:space="preserve"
       transform="matrix(1.125,0,0,-1.125,171.65593,1128.5978)"
       id="g6214"><path
         id="path6216"
         fill="black"
         stroke-width="0"
         d="M226.36,713.5 L226.36,713.51 L226.36,713.52 L226.36,713.53 L226.36,713.54 L226.36,713.55 L226.36,713.56 L226.36,713.57 L226.36,713.58 L226.36,713.59 L226.36,713.6 L226.36,713.6 L226.36,713.61 L226.36,713.62 L226.36,713.63 L226.36,713.63 L226.36,713.64 L226.36,713.65 L226.36,713.65 L226.35,713.66 L226.35,713.68 L226.35,713.69 L226.35,713.7 L226.34,713.7 L226.34,713.71 L226.33,713.72 L226.33,713.72 L226.32,713.73 L226.31,713.73 L226.31,713.74 L226.3,713.74 L226.29,713.74 L226.29,713.75 L226.28,713.75 L226.28,713.75 L226.27,713.75 L226.26,713.75 L226.26,713.75 L226.25,713.75 L226.25,713.75 L226.24,713.75 L226.23,713.76 L226.22,713.76 L226.22,713.76 L226.21,713.76 L226.2,713.76 L226.19,713.76 L226.18,713.76 L226.17,713.76 L226.16,713.76 L226.15,713.76 L226.14,713.76 L226.13,713.76 C225.51,713.12,224.64,713.12,224.32,713.12 V712.81 C224.52,712.81,225.11,712.81,225.62,713.07 V707.91 C225.62,707.55,225.59,707.43,224.7,707.43 H224.38 V707.12 C224.73,707.15,225.59,707.15,225.99,707.15 C226.39,707.15,227.26,707.15,227.61,707.12 V707.43 H227.29 C226.39,707.43,226.36,707.54,226.36,707.91 Z " /></g>
    <g
       ns0:text="$\\bar{\\sigma}_{\\rm q}$\n\n"
       ns0:preamble="/Users/grassl/Publications/preamblePres.tex"
       transform="matrix(1.125,0,0,1.125,241.98885,78.629104)"
       style="font-style:normal;font-variant:normal;font-weight:normal;font-stretch:normal;letter-spacing:normal;word-spacing:normal;text-anchor:start;fill:none;stroke:#000000;stroke-width:0.8888889;stroke-linecap:butt;stroke-linejoin:miter;stroke-miterlimit:10.43299961;stroke-dasharray:none;stroke-dashoffset:0;stroke-opacity:1"
       id="g4284">
      <defs
         id="defs4286">
        <g
           id="g4288">
          <symbol
             style="overflow:visible"
             overflow="visible"
             id="textext-8a6dc3c6-0">
            <path
               inkscape:connector-curvature="0"
               style="stroke:none"
               d=""
               id="path4291" />
          </symbol>
          <symbol
             style="overflow:visible"
             overflow="visible"
             id="textext-8a6dc3c6-1">
            <path
               inkscape:connector-curvature="0"
               style="stroke:none"
               d="m 4.28125,-5.578125 0,-0.296875 -3.59375,0 0,0.296875 z m 0,0"
               id="path4294" />
          </symbol>
          <symbol
             style="overflow:visible"
             overflow="visible"
             id="textext-8a6dc3c6-2">
            <path
               inkscape:connector-curvature="0"
               style="stroke:none"
               d=""
               id="path4297" />
          </symbol>
          <symbol
             style="overflow:visible"
             overflow="visible"
             id="textext-8a6dc3c6-3">
            <path
               inkscape:connector-curvature="0"
               style="stroke:none"
               d="m 5.15625,-3.71875 c 0.140625,0 0.5,0 0.5,-0.34375 0,-0.234375 -0.21875,-0.234375 -0.390625,-0.234375 l -2.28125,0 c -1.5,0 -2.609375,1.640625 -2.609375,2.828125 0,0.875 0.59375,1.578125 1.5,1.578125 1.171875,0 2.5,-1.203125 2.5,-2.734375 0,-0.171875 0,-0.65625 -0.3125,-1.09375 z M 1.890625,-0.109375 C 1.390625,-0.109375 1,-0.46875 1,-1.1875 c 0,-0.296875 0.109375,-1.109375 0.46875,-1.703125 0.421875,-0.6875 1.015625,-0.828125 1.359375,-0.828125 0.828125,0 0.90625,0.65625 0.90625,0.96875 0,0.46875 -0.203125,1.28125 -0.53125,1.796875 -0.390625,0.578125 -0.9375,0.84375 -1.3125,0.84375 z m 0,0"
               id="path4300" />
          </symbol>
          <symbol
             style="overflow:visible"
             overflow="visible"
             id="textext-8a6dc3c6-4">
            <path
               inkscape:connector-curvature="0"
               style="stroke:none"
               d=""
               id="path4303" />
          </symbol>
          <symbol
             style="overflow:visible"
             overflow="visible"
             id="textext-8a6dc3c6-5">
            <path
               inkscape:connector-curvature="0"
               style="stroke:none"
               d="m 3.53125,-3.078125 -0.21875,0 -0.25,0.609375 C 2.84375,-2.796875 2.5,-3.078125 2,-3.078125 c -0.890625,0 -1.671875,0.6875 -1.671875,1.578125 0,0.875 0.734375,1.5625 1.609375,1.5625 0.5625,0 0.859375,-0.296875 1.03125,-0.46875 l 0,1.203125 c 0,0.296875 -0.0625,0.296875 -0.515625,0.296875 l 0,0.265625 c 0.015625,0 0.5,-0.03125 0.796875,-0.03125 0.25,0 0.734375,0.015625 0.796875,0.03125 l 0,-0.265625 c -0.453125,0 -0.515625,0 -0.515625,-0.296875 z M 3,-1 C 3,-0.875 3,-0.84375 2.90625,-0.671875 2.6875,-0.328125 2.34375,-0.125 1.984375,-0.125 1.40625,-0.125 0.953125,-0.75 0.953125,-1.484375 0.953125,-2.3125 1.5,-2.84375 2.0625,-2.84375 2.640625,-2.84375 3,-2.28125 3,-1.890625 Z m 0,0"
               id="path4307" />
          </symbol>
        </g>
      </defs>
      <g
         id="textext-8a6dc3c6-6">
        <g
           style="fill:#000000;fill-opacity:1"
           id="g4310">
          <use
             height="100%"
             width="100%"
             xlink:href="#textext-8a6dc3c6-1"
             x="223.967"
             y="134.765"
             id="use4312" />
        </g>
        <g
           style="fill:#000000;fill-opacity:1"
           id="g4314">
          <use
             height="100%"
             width="100%"
             xlink:href="#textext-8a6dc3c6-3"
             x="223.43201"
             y="134.765"
             id="use4316" />
        </g>
        <g
           style="fill:#000000;fill-opacity:1"
           id="g4318">
          <use
             height="100%"
             width="100%"
             xlink:href="#textext-8a6dc3c6-5"
             x="229.125"
             y="136.259"
             id="use4320" />
        </g>
      </g>
    </g>
    <g
       id="g4495"
       style="font-style:normal;font-variant:normal;font-weight:normal;font-stretch:normal;letter-spacing:normal;word-spacing:normal;text-anchor:start;fill:none;stroke:#000000;stroke-linecap:butt;stroke-linejoin:miter;stroke-miterlimit:10.43299961;stroke-dasharray:none;stroke-dashoffset:0;stroke-opacity:1"
       transform="translate(56.685535,188.66765)"
       ns0:preamble="/Users/grassl/Publications/preamblePres.tex"
       ns0:text="$\\beta$\n\n">
      <defs
         id="defs4497">
        <g
           id="g4499">
          <symbol
             style="overflow:visible"
             id="textext-df69bf9b-0"
             overflow="visible">
            <path
               inkscape:connector-curvature="0"
               id="path4502"
               d=""
               style="stroke:none" />
          </symbol>
          <symbol
             style="overflow:visible"
             id="textext-df69bf9b-1"
             overflow="visible">
            <path
               inkscape:connector-curvature="0"
               id="path4505"
               d="m 5.734375,-5.671875 c 0,-0.75 -0.546875,-1.359375 -1.359375,-1.359375 -0.578125,0 -0.859375,0.15625 -1.203125,0.40625 C 2.625,-6.21875 2.078125,-5.25 1.890625,-4.5 L 0.296875,1.828125 C 0.296875,1.875 0.34375,1.9375 0.421875,1.9375 0.5,1.9375 0.53125,1.90625 0.53125,1.890625 L 1.234375,-0.875 c 0.1875,0.609375 0.625,0.96875 1.359375,0.96875 C 3.3125,0.09375 4.0625,-0.25 4.515625,-0.6875 5,-1.140625 5.3125,-1.78125 5.3125,-2.515625 c 0,-0.71875 -0.375,-1.25 -0.734375,-1.484375 0.578125,-0.34375 1.15625,-0.953125 1.15625,-1.671875 z M 3.9375,-4.015625 c -0.125,0.046875 -0.234375,0.0625 -0.484375,0.0625 -0.140625,0 -0.328125,0.015625 -0.4375,-0.03125 0.03125,-0.109375 0.390625,-0.078125 0.5,-0.078125 0.203125,0 0.296875,0 0.421875,0.046875 z M 5.171875,-5.90625 c 0,0.703125 -0.375,1.421875 -0.890625,1.734375 C 4,-4.28125 3.8125,-4.296875 3.515625,-4.296875 c -0.21875,0 -0.78125,-0.015625 -0.78125,0.3125 0,0.28125 0.515625,0.25 0.6875,0.25 0.375,0 0.53125,0 0.828125,-0.125 0.375,0.359375 0.421875,0.671875 0.4375,1.125 0.015625,0.578125 -0.21875,1.328125 -0.5,1.71875 C 3.796875,-0.484375 3.125,-0.125 2.5625,-0.125 c -0.765625,0 -1.140625,-0.578125 -1.140625,-1.28125 0,-0.09375 0,-0.25 0.046875,-0.4375 L 2.109375,-4.359375 C 2.328125,-5.21875 3.046875,-6.8125 4.25,-6.8125 c 0.578125,0 0.921875,0.3125 0.921875,0.90625 z m 0,0"
               style="stroke:none" />
          </symbol>
        </g>
      </defs>
      <g
         id="textext-df69bf9b-2">
        <g
           id="g4508"
           style="fill:#000000;fill-opacity:1">
          <use
             height="100%"
             width="100%"
             id="use4510"
             y="134.765"
             x="223.43201"
             xlink:href="#textext-df69bf9b-1" />
        </g>
      </g>
    </g>
    <g
       ns0:text="$\\alpha$\n\n\n"
       ns0:preamble="/Users/grassl/Publications/preamblePres.tex"
       transform="matrix(1.125,0,0,1.125,152.16016,166.00623)"
       style="font-style:normal;font-variant:normal;font-weight:normal;font-stretch:normal;letter-spacing:normal;word-spacing:normal;text-anchor:start;fill:none;stroke:#000000;stroke-width:0.8888889;stroke-linecap:butt;stroke-linejoin:miter;stroke-miterlimit:10.43299961;stroke-dasharray:none;stroke-dashoffset:0;stroke-opacity:1"
       id="g4699">
      <defs
         id="defs4701">
        <g
           id="g4703">
          <symbol
             style="overflow:visible"
             overflow="visible"
             id="textext-f5e8cafa-0">
            <path
               inkscape:connector-curvature="0"
               style="stroke:none"
               d=""
               id="path4706" />
          </symbol>
          <symbol
             style="overflow:visible"
             overflow="visible"
             id="textext-f5e8cafa-1">
            <path
               inkscape:connector-curvature="0"
               style="stroke:none"
               d="m 4.75,-2.359375 c 0,-1.5625 -0.921875,-2.046875 -1.65625,-2.046875 -1.375,0 -2.6875,1.421875 -2.6875,2.828125 0,0.9375 0.59375,1.6875 1.625,1.6875 0.625,0 1.34375,-0.234375 2.09375,-0.84375 0.125,0.53125 0.453125,0.84375 0.90625,0.84375 0.53125,0 0.84375,-0.546875 0.84375,-0.703125 0,-0.078125 -0.0625,-0.109375 -0.125,-0.109375 -0.0625,0 -0.09375,0.03125 -0.125,0.109375 -0.1875,0.484375 -0.546875,0.484375 -0.5625,0.484375 -0.3125,0 -0.3125,-0.78125 -0.3125,-1.015625 0,-0.203125 0,-0.234375 0.109375,-0.34375 C 5.796875,-2.65625 6,-3.8125 6,-3.8125 6,-3.84375 5.984375,-3.921875 5.875,-3.921875 c -0.09375,0 -0.09375,0.03125 -0.140625,0.21875 -0.1875,0.625 -0.515625,1.375 -0.984375,1.96875 z m -0.65625,1.375 c -0.890625,0.765625 -1.65625,0.875 -2.046875,0.875 -0.59375,0 -0.90625,-0.453125 -0.90625,-1.09375 0,-0.484375 0.265625,-1.5625 0.578125,-2.0625 C 2.1875,-4 2.734375,-4.1875 3.078125,-4.1875 c 0.984375,0 0.984375,1.3125 0.984375,2.078125 0,0.375 0,0.953125 0.03125,1.125 z m 0,0"
               id="path4709" />
          </symbol>
        </g>
      </defs>
      <g
         id="textext-f5e8cafa-2">
        <g
           style="fill:#000000;fill-opacity:1"
           id="g4712">
          <use
             height="100%"
             width="100%"
             xlink:href="#textext-f5e8cafa-1"
             x="223.43201"
             y="134.765"
             id="use4714" />
        </g>
      </g>
    </g>
    <path
       sodipodi:open="true"
       sodipodi:end="3.0422024"
       sodipodi:start="3.0434602"
       d="m 506.23496,359.80164 a 2.3231182,2.3231182 0 0 1 2.08361,-2.53947 2.3231182,2.3231182 0 0 1 2.54013,2.0828 2.3231182,2.3231182 0 0 1 -2.08201,2.54079 2.3231182,2.3231182 0 0 1 -2.54144,-2.08121"
       sodipodi:ry="2.3231182"
       sodipodi:rx="2.3231182"
       sodipodi:cy="359.57404"
       sodipodi:cx="508.54691"
       id="path24801-4"
       style="fill:#020202;fill-opacity:1;stroke:#010101;stroke-width:0.70866144;stroke-miterlimit:4;stroke-dasharray:none;stroke-dashoffset:0;stroke-opacity:1"
       sodipodi:type="arc" />
    <path
       sodipodi:open="true"
       sodipodi:end="3.0422024"
       sodipodi:start="3.0434602"
       d="m 485.00269,322.81641 a 2.3231182,2.3231182 0 0 1 2.08361,-2.53947 2.3231182,2.3231182 0 0 1 2.54013,2.0828 2.3231182,2.3231182 0 0 1 -2.08201,2.54079 2.3231182,2.3231182 0 0 1 -2.54144,-2.08121"
       sodipodi:ry="2.3231182"
       sodipodi:rx="2.3231182"
       sodipodi:cy="322.58881"
       sodipodi:cx="487.31464"
       id="path24801-4-6"
       style="fill:#020202;fill-opacity:1;stroke:#010101;stroke-width:0.70866144;stroke-miterlimit:4;stroke-dasharray:none;stroke-dashoffset:0;stroke-opacity:1"
       sodipodi:type="arc" />
    <g
       id="g4405"
       style="font-style:normal;font-variant:normal;font-weight:normal;font-stretch:normal;letter-spacing:normal;word-spacing:normal;text-anchor:start;fill:none;fill-opacity:1;fill-rule:evenodd;stroke:#000000;stroke-width:0.8888889;stroke-linecap:butt;stroke-linejoin:miter;stroke-miterlimit:10.43299961;stroke-dasharray:none;stroke-dashoffset:0;stroke-opacity:1"
       transform="matrix(1.125,0,0,1.125,239.86997,169.59562)"
       ns0:preamble="/Users/grassl/Publications/preamblePres.tex"
       ns0:text="$f_{\\rm q}$\n\n\n\n\n">
      <defs
         id="defs4407">
        <g
           id="g4409">
          <symbol
             id="textext-317f5ce4-0"
             overflow="visible"
             style="overflow:visible">
            <path
               id="path4412"
               d=""
               style="stroke:none"
               inkscape:connector-curvature="0" />
          </symbol>
          <symbol
             id="textext-317f5ce4-1"
             overflow="visible"
             style="overflow:visible">
            <path
               id="path4415"
               d="m 3.65625,-3.984375 0.859375,0 c 0.203125,0 0.296875,0 0.296875,-0.203125 0,-0.109375 -0.09375,-0.109375 -0.265625,-0.109375 l -0.828125,0 0.203125,-1.140625 c 0.046875,-0.203125 0.1875,-0.90625 0.25,-1.03125 0.078125,-0.1875 0.25,-0.34375 0.46875,-0.34375 0.03125,0 0.296875,0 0.484375,0.1875 -0.4375,0.03125 -0.546875,0.390625 -0.546875,0.53125 0,0.234375 0.1875,0.359375 0.375,0.359375 C 5.21875,-5.734375 5.5,-5.96875 5.5,-6.34375 c 0,-0.453125 -0.453125,-0.6875 -0.859375,-0.6875 -0.34375,0 -0.96875,0.1875 -1.265625,1.171875 -0.0625,0.203125 -0.09375,0.3125 -0.328125,1.5625 l -0.6875,0 c -0.203125,0 -0.3125,0 -0.3125,0.1875 0,0.125 0.09375,0.125 0.28125,0.125 l 0.65625,0 -0.734375,3.9375 c -0.1875,0.96875 -0.359375,1.875 -0.875,1.875 -0.046875,0 -0.28125,0 -0.484375,-0.1875 C 1.359375,1.609375 1.453125,1.25 1.453125,1.109375 1.453125,0.875 1.265625,0.75 1.078125,0.75 0.8125,0.75 0.53125,0.984375 0.53125,1.359375 c 0,0.4375 0.4375,0.6875 0.84375,0.6875 0.546875,0 0.953125,-0.59375 1.125,-0.96875 0.328125,-0.625 0.546875,-1.828125 0.5625,-1.90625 z m 0,0"
               style="stroke:none"
               inkscape:connector-curvature="0" />
          </symbol>
          <symbol
             id="textext-317f5ce4-2"
             overflow="visible"
             style="overflow:visible">
            <path
               id="path4418"
               d=""
               style="stroke:none"
               inkscape:connector-curvature="0" />
          </symbol>
          <symbol
             id="textext-317f5ce4-3"
             overflow="visible"
             style="overflow:visible">
            <path
               id="path4421"
               d="m 3.53125,-3.078125 -0.21875,0 -0.25,0.609375 C 2.84375,-2.796875 2.5,-3.078125 2,-3.078125 c -0.890625,0 -1.671875,0.6875 -1.671875,1.578125 0,0.875 0.734375,1.5625 1.609375,1.5625 0.5625,0 0.859375,-0.296875 1.03125,-0.46875 l 0,1.203125 c 0,0.296875 -0.0625,0.296875 -0.515625,0.296875 l 0,0.265625 c 0.015625,0 0.5,-0.03125 0.796875,-0.03125 0.25,0 0.734375,0.015625 0.796875,0.03125 l 0,-0.265625 c -0.453125,0 -0.515625,0 -0.515625,-0.296875 z M 3,-1 C 3,-0.875 3,-0.84375 2.90625,-0.671875 2.6875,-0.328125 2.34375,-0.125 1.984375,-0.125 1.40625,-0.125 0.953125,-0.75 0.953125,-1.484375 0.953125,-2.3125 1.5,-2.84375 2.0625,-2.84375 2.640625,-2.84375 3,-2.28125 3,-1.890625 Z m 0,0"
               style="stroke:none"
               inkscape:connector-curvature="0" />
          </symbol>
        </g>
      </defs>
      <g
         id="textext-317f5ce4-4">
        <g
           id="g4424"
           style="fill:#000000;fill-opacity:1">
          <use
             id="use4426"
             y="134.765"
             x="223.43201"
             xlink:href="#textext-317f5ce4-1"
             width="100%"
             height="100%" />
        </g>
        <g
           id="g4428"
           style="fill:#000000;fill-opacity:1">
          <use
             id="use4430"
             y="136.259"
             x="228.31"
             xlink:href="#textext-317f5ce4-3"
             width="100%"
             height="100%" />
        </g>
      </g>
    </g>
  </g>
</svg>
